<?xml version="1.0" encoding="utf-8"?>
<!DOCTYPE svg PUBLIC "-//W3C//DTD SVG 1.0//EN" "http://www.w3.org/TR/2001/REC-SVG-20010904/DTD/svg10.dtd">
<svg version="1.0" xmlns="http://www.w3.org/2000/svg" width="474px" height="474px" viewBox="0 0 474 474" preserveAspectRatio="xMidYMid meet">
 <g fill="#fffefe">
  <path d="M108.32 152.99 l0 -20.14 7.78 0 c11.90 0.05 15.69 0.83 18.93 4.12 2.41 2.41 3.15 4.44 3.15 8.84 0 4.49 -0.74 6.53 -3.38 9.17 -2.78 2.78 -5.14 3.52 -11.53 3.70 l-5.69 0.19 0 7.13 0 7.13 -4.63 0 -4.63 0 0 -20.14z m16.43 -2.08 c2.64 -0.60 3.93 -2.27 3.93 -5.05 0 -3.84 -2.04 -5.14 -8.15 -5.14 l-2.96 0 0 5 c0 2.78 0.14 5.18 0.32 5.32 0.42 0.46 4.68 0.37 6.85 -0.14z"/>
  <path d="M144.05 153.12 l0.14 -20.04 7.17 -0.14 c12.87 -0.23 18.38 1.11 22.91 5.69 7.27 7.22 7.50 20.88 0.51 28.38 -4.68 5 -8.61 6.11 -21.43 6.11 l-9.40 0 0.09 -20z m18.93 11.16 c4.58 -1.53 6.90 -5.37 6.90 -11.29 0 -4.40 -0.88 -6.71 -3.38 -8.89 -2.13 -1.85 -5.60 -2.92 -9.67 -2.92 l-3.15 0 0 12.08 0 12.13 3.84 -0.28 c2.13 -0.19 4.58 -0.56 5.46 -0.83z"/>
  <path d="M186.08 152.99 l0 -20.14 11.71 0 c6.39 0 12.13 0.14 12.68 0.28 0.88 0.23 1.02 0.65 1.16 3.47 0.09 1.76 0.09 3.43 0 3.66 -0.09 0.28 -3.38 0.46 -8.24 0.46 l-8.05 0 0 4.40 0 4.40 6.25 0 6.25 0 0 3.70 0 3.70 -6.25 0 -6.25 0 0 8.10 0 8.10 -4.63 0 -4.63 0 0 -20.14z"/>
  <path d="M288.66 154.79 c-0.19 -0.69 -0.28 -16.94 -0.23 -36.15 l0.05 -34.90 6.99 6.85 c10.42 10.28 27.91 27.77 31.34 31.34 l2.96 3.10 -15.46 15.46 -15.51 15.51 -4.91 0 -4.95 0 -0.28 -1.20z"/>
  <path d="M346.38 151.04 l4.95 -5 4.63 4.63 c2.55 2.55 4.63 4.77 4.63 5 0 0.19 -4.30 0.32 -9.58 0.32 l-9.63 0 5 -4.95z"/>
 </g>
 <g fill="#bdb9f5">
  <path d="M116.88 395.35 c-2.13 -0.97 -4.07 -2.92 -4.95 -4.91 -0.51 -1.11 -0.60 -19.53 -0.69 -98.83 -0.09 -53.60 0 -98.13 0.14 -98.92 l0.23 -1.53 72.07 0 72.12 0 2.04 -1.02 c1.11 -0.60 2.68 -1.85 3.43 -2.82 l1.43 -1.81 0 -34.12 0 -34.16 -1.30 -1.67 c-0.74 -0.97 -2.13 -2.13 -3.15 -2.64 -1.81 -0.93 -2.45 -0.97 -74.25 -0.93 l-72.44 0 0 -11.53 c0 -7.04 0.19 -12.08 0.51 -12.87 0.60 -1.62 2.50 -3.66 4.35 -4.68 1.30 -0.74 8.10 -0.79 85.31 -0.93 l83.88 -0.09 0 38.42 0 38.42 5.18 0 5.23 0 -17.82 17.87 c-9.81 9.81 -18.38 18.19 -19.07 18.61 -0.79 0.46 -2.41 2.73 -4.12 5.74 l-2.82 5 -48.65 0 -48.65 0 -1.20 -1.48 c-1.62 -1.94 -4.40 -2.13 -6.20 -0.42 -1.85 1.76 -1.67 4.35 0.42 6.34 l1.62 1.53 0 26.62 c0 22.77 -0.09 26.66 -0.65 26.66 -1.06 0 -2.59 2.31 -2.59 3.98 0 2.36 1.76 4.12 4.17 4.12 1.67 0 2.18 -0.28 3.24 -1.53 l1.20 -1.48 80.59 0 80.59 0 1.62 1.62 c2.08 2.08 3.98 2.18 5.93 0.28 1.99 -2.04 1.62 -5.55 -0.74 -6.62 l-1.16 -0.51 0 -27.03 c0 -23.05 0.09 -26.99 0.65 -26.99 1.06 0 2.59 -2.31 2.59 -3.98 0 -2.36 -1.76 -4.12 -4.17 -4.12 -1.67 0 -2.18 0.28 -3.24 1.53 l-1.20 1.48 -12.50 0 -12.45 0 23.61 -23.61 23.61 -23.61 12.13 0 12.17 0 0 114.70 c0 78.55 -0.14 115.21 -0.51 116.42 -0.60 2.18 -2.92 4.91 -4.91 5.69 -1.25 0.56 -21.52 0.65 -120.12 0.65 -114.47 0 -118.69 -0.05 -120.49 -0.88z m203.90 -47.03 l0 -6.25 -84.25 0 -84.25 0 0 6.25 0 6.25 84.25 0 84.25 0 0 -6.25z m0 -35.64 l0 -6.25 -84.25 0 -84.25 0 0 6.25 0 6.25 84.25 0 84.25 0 0 -6.25z"/>
  <path d="M394.52 338.74 l0.14 -1.53 16.99 -0.14 16.99 -0.09 0 1.62 0 1.62 -17.13 0 -17.13 0 0.14 -1.48z"/>
  <path d="M394.75 329.81 l-0.19 -1.62 17.03 0 17.03 0 0 1.62 0 1.62 -16.85 0 -16.85 0 -0.19 -1.62z"/>
  <path d="M421.23 304.49 l0 -7.96 7.87 7.82 c4.35 4.30 7.87 7.92 7.87 7.96 0 0.09 -3.52 0.14 -7.87 0.14 l-7.87 0 0 -7.96z"/>
  <path d="M52.31 289.68 c0 -0.32 -0.14 -1.06 -0.28 -1.62 l-0.28 -1.06 15.32 0 15.32 0 0 1.62 0 1.62 -15.04 0 c-11.71 0 -15.04 -0.14 -15.04 -0.56z"/>
  <path d="M52.03 273.38 c-0.14 -0.37 -0.19 -1.16 -0.09 -1.76 l0.14 -1.06 15.04 0 15.04 0 0 1.62 0 1.62 -14.95 0.14 c-12.64 0.09 -14.95 0 -15.18 -0.56z"/>
  <path d="M154.19 267.18 c-0.28 -0.56 -1.02 -1.25 -1.67 -1.57 l-1.16 -0.51 0 -27.03 c0 -23.05 0.09 -26.99 0.65 -26.99 0.37 0 1.16 -0.65 1.76 -1.39 l1.11 -1.43 48 -0.09 c26.38 -0.05 48 -0.05 48 -0.05 0 0.05 -3.06 5.37 -6.76 11.80 -8.75 15.28 -13.84 24.90 -13.33 25.41 0.37 0.32 7.13 -3.24 18.47 -9.86 l3.70 -2.13 0.23 7.96 c0.28 8.84 0.60 10 3.33 11.99 2.08 1.43 7.36 1.76 9.86 0.56 2.59 -1.20 4.03 -3.70 4.30 -7.59 l0.23 -3.24 -3.52 0 -3.52 0 -0.14 2.82 c-0.14 3.19 -1.02 4.35 -2.55 3.38 -0.74 -0.46 -0.83 -1.53 -0.97 -9.81 l-0.09 -9.30 1.16 -0.79 c1.76 -1.16 2.45 -0.28 2.64 3.19 l0.14 2.87 3.38 0.14 3.33 0.14 0 -2.68 c-0.05 -2.96 -0.88 -5.74 -2.13 -7.13 -0.42 -0.46 -0.69 -0.97 -0.60 -1.02 0.60 -0.51 6.11 -3.66 8.10 -4.63 1.53 -0.79 4.21 -3.10 7.64 -6.53 l5.28 -5.37 13.75 -0.14 13.70 -0.19 0.51 1.06 c0.23 0.60 1.02 1.39 1.67 1.85 l1.16 0.74 0 26.76 c0 26.66 0 26.80 -0.97 27.08 -0.51 0.19 -1.30 0.88 -1.71 1.53 l-0.79 1.25 -80.87 0 -80.87 0 -0.46 -1.06z m34.39 -16.02 l0.37 -3.10 2.18 0.14 2.13 0.14 0.37 2.92 0.42 2.87 3.47 0 3.47 0 -0.32 -1.25 c-0.32 -1.39 -5.79 -28.33 -5.79 -28.65 0 -0.09 -1.67 -0.19 -3.70 -0.19 -3.43 0 -3.70 0.09 -3.93 1.06 -0.74 3.06 -5.69 28.79 -5.55 29.02 0.09 0.14 1.57 0.19 3.33 0.19 l3.15 -0.09 0.42 -3.06z m27.68 2.08 l1.53 -1.34 0.14 -7.87 c0.19 -8.79 -0.14 -10.14 -2.68 -11.43 -1.81 -0.93 -2.68 -0.88 -4.81 0.28 -1.57 0.83 -1.76 0.88 -1.48 0.14 0.19 -0.42 0.14 -2.64 0 -4.86 l-0.32 -4.12 -2.92 0 -2.96 0 0 15.04 0 15.04 3.29 0 c2.68 0 3.24 -0.14 3.06 -0.69 -0.23 -0.46 0.09 -0.42 1.20 0.23 2.18 1.34 4.17 1.20 5.97 -0.42z m64.39 0.83 c0.56 -0.32 1.16 -0.79 1.34 -1.06 0.23 -0.32 0.37 -0.19 0.37 0.32 0 0.65 0.46 0.79 3.24 0.79 l3.24 0 0 -11.48 c0 -6.34 -0.14 -13.10 -0.28 -15.04 l-0.32 -3.56 -2.92 0 -2.96 0 0 4.63 0 4.68 -1.48 -0.79 c-2.92 -1.48 -6.39 0.14 -7.31 3.47 -0.56 2.08 -0.60 12.17 0 14.63 0.74 3.29 4.17 4.95 7.08 3.43z"/>
  <path d="M189.83 242.46 c0 -0.60 0.28 -2.82 0.60 -5 l0.56 -3.93 0.60 4.40 c0.32 2.41 0.69 4.68 0.79 5 0.09 0.37 -0.32 0.56 -1.20 0.56 -1.16 0 -1.39 -0.19 -1.34 -1.02z"/>
  <path d="M209.23 243.25 c0 -6.76 0 -6.76 1.06 -6.62 1.02 0.14 1.02 0.23 1.02 6.62 0 6.39 0 6.48 -1.02 6.62 -1.06 0.14 -1.06 0.14 -1.06 -6.62z"/>
  <path d="M279.86 249.27 c-0.14 -0.42 -0.28 -3.24 -0.28 -6.25 0 -5.69 0.37 -6.85 2.04 -6.20 0.65 0.28 0.74 1.06 0.65 6.62 -0.14 6.02 -0.19 6.30 -1.11 6.43 -0.60 0.09 -1.11 -0.19 -1.30 -0.60z"/>
  <path d="M76.38 249.64 l0 -7.31 7.17 7.17 c3.93 3.93 7.17 7.22 7.17 7.27 0 0.09 -3.24 0.14 -7.17 0.14 l-7.17 0 0 -7.27z"/>
  <path d="M108.08 173.03 c-0.14 -0.32 -0.19 -9.54 -0.09 -20.51 l0.09 -19.90 0.14 20.23 0.09 20.23 4.77 0.19 4.72 0.14 -4.77 0.09 c-3.43 0.05 -4.81 -0.05 -4.95 -0.46z"/>
  <path d="M148.03 173.26 c2.31 -0.09 6.20 -0.09 8.56 0 2.31 0.05 0.42 0.14 -4.30 0.14 -4.72 0 -6.62 -0.09 -4.26 -0.14z"/>
  <path d="M188.30 173.26 c1.30 -0.09 3.52 -0.09 4.86 0 1.30 0.09 0.23 0.14 -2.45 0.14 -2.68 0 -3.75 -0.05 -2.41 -0.14z"/>
  <path d="M154.98 164.93 c0.83 -0.09 2.08 -0.09 2.78 0 0.69 0.09 0 0.19 -1.53 0.19 -1.53 0 -2.08 -0.09 -1.25 -0.19z"/>
  <path d="M119.33 158.91 c1.06 -0.09 2.73 -0.09 3.70 0 0.93 0.09 0.05 0.19 -1.99 0.19 -2.04 0 -2.82 -0.09 -1.71 -0.19z"/>
  <path d="M346.71 150.35 c1.11 -1.25 2.08 -2.22 2.18 -2.22 0.37 0 0 0.42 -2.04 2.31 l-2.22 2.08 2.08 -2.18z"/>
  <path d="M119.33 151.04 c0.79 -0.09 2.18 -0.09 3.01 0 0.79 0.09 0.14 0.19 -1.53 0.19 -1.67 0 -2.31 -0.09 -1.48 -0.19z"/>
  <path d="M119.33 140.86 c1.06 -0.09 2.73 -0.09 3.70 0 0.93 0.09 0.05 0.19 -1.99 0.19 -2.04 0 -2.82 -0.09 -1.71 -0.19z"/>
  <path d="M199.18 140.86 c2.22 -0.09 5.79 -0.09 7.87 0 2.08 0.05 0.28 0.14 -4.07 0.14 -4.30 0 -6.02 -0.09 -3.80 -0.14z"/>
  <path d="M211.54 136.37 c0 -2.45 -0.14 -3.01 -0.79 -3.19 -0.65 -0.19 -0.56 -0.23 0.23 -0.28 0.97 -0.05 1.02 0.14 1.02 3.19 0 1.81 -0.09 3.24 -0.23 3.24 -0.14 0 -0.23 -1.34 -0.23 -2.96z"/>
  <path d="M326.11 121.18 l-1.85 -1.99 1.99 1.85 c1.81 1.67 2.18 2.08 1.81 2.08 -0.09 0 -0.97 -0.88 -1.94 -1.94z"/>
  <path d="M321.48 116.56 l-1.85 -1.99 1.99 1.85 c1.81 1.67 2.18 2.08 1.81 2.08 -0.09 0 -0.97 -0.88 -1.94 -1.94z"/>
  <path d="M312.91 107.99 l-2.55 -2.68 2.68 2.55 c2.45 2.31 2.87 2.78 2.50 2.78 -0.05 0 -1.25 -1.20 -2.64 -2.64z"/>
  <path d="M305.97 101.05 l-2.55 -2.68 2.68 2.55 c2.45 2.31 2.87 2.78 2.50 2.78 -0.05 0 -1.25 -1.20 -2.64 -2.64z"/>
  <path d="M297.18 92.25 l-3.93 -4.07 4.07 3.93 c3.75 3.66 4.26 4.17 3.89 4.17 -0.05 0 -1.90 -1.81 -4.03 -4.03z"/>
  <path d="M288.47 86.24 c-0.09 -1.94 0.46 -2.92 1.11 -1.94 0.19 0.32 0.14 0.42 -0.19 0.23 -0.32 -0.19 -0.56 0.42 -0.69 1.67 l-0.19 1.99 -0.05 -1.94z"/>
  <path d="M403.13 76.98 l-1.57 -1.76 1.76 1.57 c1.57 1.53 1.94 1.90 1.57 1.90 -0.09 0 -0.88 -0.79 -1.76 -1.71z"/>
  <path d="M394.57 68.97 l-2.82 -2.73 7.96 -7.87 c6.99 -6.99 8.10 -7.92 9.44 -7.92 1.99 0 3.61 0.93 5.83 3.33 1.02 1.06 1.25 1.48 0.56 0.83 l-1.30 -1.11 -8.52 8.52 c-4.72 4.72 -8.47 8.84 -8.33 9.17 0.32 0.83 0.23 0.79 -2.82 -2.22z"/>
 </g>
 <g fill="#f2d0a1">
  <path d="M239.31 233.85 c0 -0.56 18.52 -32.77 19.49 -33.84 0.42 -0.51 2.13 0.97 9.03 7.87 4.68 4.68 8.52 8.66 8.52 8.79 0 0.19 -0.32 0.46 -0.74 0.60 -0.60 0.23 -0.65 0.19 -0.28 -0.32 0.42 -0.46 -0.69 -1.81 -4.95 -6.06 -3.01 -3.01 -5.69 -5.37 -5.97 -5.23 -0.23 0.19 -2.59 2.82 -5.23 5.93 -2.64 3.10 -7.41 8.61 -10.60 12.17 -3.19 3.61 -6.57 7.50 -7.50 8.61 -0.97 1.11 -1.76 1.76 -1.76 1.48z"/>
 </g>
 <g fill="#e4bc8f">
  <path d="M240.24 235.38 c-0.88 -0.88 -1.43 -1.76 -1.25 -1.94 0.19 -0.14 0.32 0 0.32 0.32 0 0.37 0.79 -0.28 1.76 -1.39 0.93 -1.11 4.30 -5 7.50 -8.61 3.19 -3.56 8.05 -9.17 10.79 -12.41 2.78 -3.19 5.23 -5.83 5.51 -5.83 0.32 0 0.05 -0.56 -0.56 -1.30 -0.65 -0.69 1.94 1.76 5.69 5.46 3.75 3.70 6.80 6.90 6.80 7.17 0 0.23 -0.23 0.14 -0.46 -0.23 -0.42 -0.65 -0.69 -0.28 -0.46 0.69 0.05 0.28 -0.09 0.32 -0.28 0.14 -0.19 -0.19 -0.60 0 -0.97 0.46 -0.37 0.42 -0.56 0.51 -0.37 0.23 0.51 -1.02 -0.23 -0.65 -1.48 0.69 -0.69 0.69 -1.06 0.97 -0.83 0.65 0.28 -0.51 0.14 -0.56 -0.65 -0.14 -0.51 0.32 -0.97 0.74 -0.97 0.97 0 0.23 -0.46 0.65 -0.97 0.97 -0.74 0.37 -0.93 0.37 -0.65 -0.05 0.28 -0.42 0.09 -0.42 -0.65 -0.05 -0.51 0.32 -0.97 0.79 -0.97 1.06 0 0.28 -0.14 0.37 -0.32 0.23 -0.14 -0.19 -0.56 0.05 -0.93 0.51 -0.46 0.51 -0.56 0.56 -0.37 0.09 0.19 -0.46 0.09 -0.42 -0.37 0.09 -0.37 0.46 -0.79 0.69 -0.93 0.51 -0.19 -0.14 -0.32 -0.05 -0.32 0.23 0 0.28 -0.46 0.74 -0.97 1.06 -0.79 0.42 -0.93 0.37 -0.65 -0.14 0.14 -0.32 -0.05 -0.19 -0.42 0.28 -0.42 0.51 -0.74 0.74 -0.74 0.51 0 -0.23 -0.32 0 -0.74 0.51 -0.37 0.46 -0.56 0.60 -0.42 0.28 0.28 -0.51 0.14 -0.56 -0.65 -0.14 -0.51 0.32 -0.97 0.74 -0.97 0.97 0 0.23 -0.46 0.65 -0.97 0.97 -0.79 0.42 -0.93 0.37 -0.65 -0.14 0.14 -0.32 0 -0.23 -0.37 0.19 -0.37 0.46 -0.79 0.69 -0.93 0.51 -0.19 -0.14 -0.32 -0.05 -0.32 0.23 0 0.28 -0.46 0.74 -0.97 1.06 -0.69 0.37 -0.88 0.37 -0.69 0 0.60 -0.97 -0.23 -0.51 -1.43 0.79 -0.69 0.69 -1.06 0.97 -0.83 0.65 0.28 -0.51 0.14 -0.56 -0.65 -0.14 -0.51 0.32 -0.97 0.79 -0.97 1.06 0 0.28 -0.14 0.37 -0.32 0.23 -0.14 -0.19 -0.56 0.05 -0.93 0.51 -0.46 0.51 -0.56 0.56 -0.37 0.09 0.19 -0.37 -0.05 -0.28 -0.42 0.19 -0.42 0.51 -0.74 0.74 -0.74 0.51 0 -0.23 -0.32 0 -0.74 0.51 -0.37 0.46 -0.60 0.56 -0.42 0.19 0.19 -0.37 -0.09 -0.28 -0.56 0.23 -0.46 0.56 -1.25 1.25 -1.71 1.62 -0.83 0.60 -0.88 0.60 -0.51 0 0.32 -0.56 0.28 -0.60 -0.28 -0.14 -0.60 0.46 -0.97 0.32 -2.27 -1.02z m35.64 -19.35 c0 -0.05 -2.45 -2.50 -5.42 -5.42 l-5.46 -5.32 5.32 5.46 c4.95 5.05 5.55 5.65 5.55 5.28z"/>
 </g>
 <g fill="#a59cea">
  <path d="M0 237 l0 -237 237 0 237 0 0 237 0 237 -237 0 -237 0 0 -237z m227.05 196.96 l0 -4.63 -1.39 -0.14 c-1.99 -0.23 -2.55 0.83 -2.55 5 0 3.93 0.42 4.72 2.55 4.54 l1.39 -0.14 0 -4.63z m-6.25 -7.64 c0.28 -0.56 0.37 -1.39 0.23 -1.85 -0.28 -0.83 -0.74 -0.93 -4.68 -0.93 -4.77 0 -5.18 0.23 -4.63 2.55 0.28 1.11 0.42 1.16 4.44 1.16 3.70 0 4.17 -0.09 4.63 -0.93z m17.82 0 c0.14 -0.51 0.14 -1.34 0 -1.85 -0.28 -0.83 -0.69 -0.93 -4.63 -0.93 -3.89 0 -4.35 0.09 -4.63 0.93 -0.14 0.46 -0.05 1.30 0.23 1.85 0.46 0.83 0.93 0.93 4.63 0.93 3.70 0 4.12 -0.09 4.40 -0.93z m-11.76 -5.09 c0.28 0 0.42 -1.85 0.32 -4.49 l-0.14 -4.54 -1.94 -0.14 -1.99 -0.14 0 4.44 c0 4.17 0.05 4.44 1.06 4.86 0.56 0.23 1.30 0.32 1.62 0.19 0.37 -0.09 0.83 -0.19 1.06 -0.19z m122.53 -15.09 c2.45 -1.20 4.35 -3.10 5.74 -5.69 0.46 -0.79 1.16 -1.57 1.62 -1.71 4.44 -1.30 7.27 -4.12 8.42 -8.29 0.37 -1.30 0.51 -35.64 0.51 -117.81 l0 -115.95 -4.44 -4.40 c-2.41 -2.41 -5.09 -5.37 -5.97 -6.53 l-1.53 -2.13 36.34 -36.29 c22.31 -22.31 36.61 -36.94 37.08 -37.91 0.97 -2.18 0.97 -4.54 0.05 -6.48 -0.97 -1.99 -12.78 -13.70 -14.49 -14.35 -1.57 -0.56 -5.37 -0.60 -6.30 -0.05 -0.37 0.28 -17.31 17.08 -37.59 37.40 l-36.94 36.94 -21.89 -21.89 -21.85 -21.85 -84.94 0 -84.94 0 -2.92 1.43 c-3.10 1.53 -5.14 3.75 -6.11 6.71 -0.42 1.16 -1.25 2.04 -3.01 3.19 -1.62 1.02 -2.92 2.36 -3.80 3.80 -1.25 2.13 -1.30 2.50 -1.53 9.86 l-0.23 7.64 -20.88 0.23 -20.88 0.23 -1.71 1.34 c-0.97 0.74 -2.18 2.22 -2.64 3.33 -0.88 1.90 -0.88 3.43 -0.79 35.27 l0.14 33.24 1.25 1.90 c2.41 3.66 2.13 3.61 25.27 3.75 l20.46 0.14 0 103.13 c0 115.77 -0.32 105.77 3.47 109.52 3.70 3.70 -7.87 3.38 124.33 3.43 l118.27 0.05 2.41 -1.20z m79.25 -67.54 l0 -1.62 -16.99 0.09 -16.99 0.14 -0.14 1.53 -0.14 1.48 17.13 0 17.13 0 0 -1.62z m0 -8.79 l0 -1.62 -17.03 0 -17.03 0 0.19 1.62 0.19 1.62 16.85 0 16.85 0 0 -1.62z m8.33 -17.50 c0 -0.05 -3.52 -3.66 -7.87 -7.96 l-7.87 -7.82 0 7.96 0 7.96 7.87 0 c4.35 0 7.87 -0.05 7.87 -0.14z m-354.57 -23.70 l0 -1.62 -15.32 0 -15.32 0 0.28 1.06 c0.14 0.56 0.28 1.30 0.28 1.62 0 0.42 3.33 0.56 15.04 0.56 l15.04 0 0 -1.62z m-0.23 -16.43 l0 -1.62 -15.04 0 -15.04 0 -0.14 1.06 c-0.37 2.50 -0.83 2.41 15.28 2.31 l14.95 -0.14 0 -1.62z m8.56 -15.41 c0 -0.05 -3.24 -3.33 -7.17 -7.27 l-7.17 -7.17 0 7.31 0 7.27 7.17 0 c3.93 0 7.17 -0.05 7.17 -0.14z m331.80 -98.09 c0.32 -0.32 0.56 -2.04 0.56 -4.54 0 -4.30 -0.37 -5.09 -2.31 -5.09 -1.94 0 -2.31 0.79 -2.31 5.09 0 4.30 0.37 5.09 2.31 5.09 0.65 0 1.43 -0.23 1.76 -0.56z m-5.93 -11.99 c0.32 -0.51 0.42 -1.48 0.28 -2.08 -0.28 -1.11 -0.37 -1.16 -5.05 -1.02 l-4.72 0.14 -0.14 1.30 c-0.28 2.50 -0.05 2.64 4.72 2.64 3.98 0 4.44 -0.09 4.91 -0.97z m17.73 0 c0.65 -1.06 0.05 -3.10 -1.06 -3.43 -0.56 -0.19 -2.55 -0.14 -4.44 0 -3.01 0.32 -3.56 0.51 -3.98 1.39 -0.32 0.74 -0.32 1.34 0.09 2.04 0.46 0.93 0.83 1.02 4.72 0.88 3.24 -0.09 4.30 -0.32 4.68 -0.88z m-11.80 -5.65 c0.37 -0.28 0.56 -1.76 0.56 -4.30 0 -4.17 -0.51 -5.28 -2.55 -5.28 -1.62 0 -2.08 1.30 -2.08 5.51 0 3.24 0.14 3.80 0.97 4.40 0.97 0.65 1.94 0.56 3.10 -0.32z m-199.41 -83.18 c0.56 -0.32 0.69 -1.39 0.69 -4.63 0 -3.24 -0.14 -4.30 -0.69 -4.63 -0.97 -0.60 -2.50 -0.56 -3.15 0.09 -0.74 0.74 -0.74 8.33 0 9.07 0.65 0.65 2.18 0.69 3.15 0.09z m-5.65 -12.13 c0.79 -0.79 0.69 -2.04 -0.19 -2.87 -0.88 -0.93 -8.01 -1.06 -8.89 -0.19 -0.60 0.60 -0.74 2.78 -0.23 3.29 0.56 0.56 8.70 0.37 9.30 -0.23z m17.96 -0.56 c0.14 -0.60 0.05 -1.57 -0.28 -2.08 -0.46 -0.88 -0.93 -0.97 -4.54 -0.97 -2.55 0 -4.26 0.19 -4.63 0.56 -0.60 0.60 -0.74 2.78 -0.23 3.29 0.14 0.19 2.31 0.32 4.81 0.32 4.44 0 4.58 -0.05 4.86 -1.11z m-11.85 -5.32 c0.79 -1.48 0.60 -7.73 -0.28 -8.56 -0.83 -0.88 -2.55 -0.97 -3.33 -0.19 -0.74 0.74 -0.74 8.33 0 9.07 0.88 0.88 3.06 0.69 3.61 -0.32z"/>
  <path d="M195.25 268.15 c22.17 -0.09 58.56 -0.09 80.77 0 22.17 0.05 4.03 0.09 -40.41 0.09 -44.44 0 -62.58 -0.05 -40.36 -0.09z"/>
  <path d="M111.23 257.60 c0 -1.25 0.09 -1.76 0.19 -1.02 0.09 0.69 0.09 1.71 0 2.31 -0.09 0.56 -0.19 0 -0.19 -1.30z"/>
  <path d="M288.57 241.40 c0 -7.13 0.09 -10 0.14 -6.34 0.09 3.66 0.09 9.49 0 12.96 -0.05 3.47 -0.14 0.51 -0.14 -6.62z"/>
  <path d="M263.99 245.10 c0 -1.25 0.09 -1.76 0.19 -1.02 0.09 0.69 0.09 1.71 0 2.31 -0.09 0.56 -0.19 0 -0.19 -1.30z"/>
  <path d="M111.28 235.61 c0 -3.19 0.05 -4.49 0.14 -2.87 0.09 1.57 0.09 4.17 0 5.79 -0.09 1.57 -0.14 0.28 -0.14 -2.92z"/>
  <path d="M265.84 235.29 c0.93 -0.09 2.50 -0.09 3.47 0 0.93 0.09 0.14 0.19 -1.76 0.19 -1.90 0 -2.68 -0.09 -1.71 -0.19z"/>
  <path d="M208.90 230.98 c0 -1.16 0.09 -1.62 0.19 -1.02 0.09 0.56 0.09 1.48 0 2.08 -0.09 0.56 -0.19 0.09 -0.19 -1.06z"/>
  <path d="M163.08 207.98 c4.81 -0.09 12.50 -0.09 17.13 0 4.63 0.05 0.74 0.09 -8.70 0.09 -9.40 0 -13.19 -0.05 -8.42 -0.09z"/>
  <path d="M206.36 207.98 c8.24 -0.09 21.57 -0.09 29.63 0 8.05 0.05 1.34 0.09 -14.95 0.09 -16.29 0 -22.91 -0.05 -14.67 -0.09z"/>
  <path d="M294.31 207.98 c2.59 -0.09 6.85 -0.09 9.49 0 2.59 0.05 0.46 0.14 -4.77 0.14 -5.23 0 -7.36 -0.09 -4.72 -0.14z"/>
  <path d="M117.71 161.78 c0 -1.25 0.09 -1.76 0.19 -1.02 0.09 0.69 0.09 1.71 0 2.31 -0.09 0.56 -0.19 0 -0.19 -1.30z"/>
  <path d="M195.76 157.24 c0.19 -0.19 2.55 -0.28 5.18 -0.23 l4.81 0.14 -5.18 0.23 c-2.87 0.14 -5.05 0.05 -4.81 -0.14z"/>
  <path d="M111.28 101.14 c0 -5.32 0.09 -7.45 0.14 -4.72 0.09 2.73 0.09 7.13 0 9.72 -0.05 2.59 -0.14 0.37 -0.14 -5z"/>
  <path d="M403.69 77.40 c-1.11 -1.20 -1.71 -1.76 -1.39 -1.25 0.32 0.51 -0.51 -0.09 -1.85 -1.39 -4.12 -3.89 -4.49 -2.96 5.09 -12.54 4.68 -4.68 8.61 -8.52 8.75 -8.52 0.14 0 1.20 0.93 2.41 2.04 1.20 1.11 3.06 2.73 4.12 3.66 l1.99 1.62 -8.56 8.66 c-4.68 4.77 -8.47 8.93 -8.47 9.30 0.05 0.37 0.05 0.65 0 0.65 0 -0.05 -0.97 -1.02 -2.08 -2.22z"/>
 </g>
 <g fill="#8a7ed8">
  <path d="M223.67 438.26 c-0.79 -0.79 -0.74 -7.31 0.05 -8.42 0.42 -0.56 1.06 -0.79 1.94 -0.65 l1.39 0.14 0 4.63 0 4.63 -1.39 0.14 c-0.79 0.09 -1.67 -0.14 -1.99 -0.46z"/>
  <path d="M211.73 426.09 c-0.56 -2.31 -0.14 -2.55 4.63 -2.55 3.93 0 4.40 0.09 4.68 0.93 0.14 0.46 0.05 1.30 -0.23 1.85 -0.46 0.83 -0.93 0.93 -4.63 0.93 -4.03 0 -4.17 -0.05 -4.44 -1.16z"/>
  <path d="M229.59 426.32 c-0.28 -0.56 -0.37 -1.39 -0.23 -1.85 0.28 -0.83 0.74 -0.93 4.63 -0.93 3.93 0 4.35 0.09 4.63 0.93 0.14 0.51 0.14 1.34 0 1.85 -0.28 0.83 -0.69 0.93 -4.40 0.93 -3.70 0 -4.17 -0.09 -4.63 -0.93z"/>
  <path d="M224.18 421.23 c-1.02 -0.42 -1.06 -0.69 -1.06 -4.86 l0 -4.44 1.99 0.14 1.94 0.14 0.14 4.54 c0.09 2.64 -0.05 4.49 -0.32 4.49 -0.23 0 -0.69 0.09 -1.06 0.19 -0.32 0.14 -1.06 0.05 -1.62 -0.19z"/>
  <path d="M193.40 354.25 c22.17 -0.09 58.56 -0.09 80.77 0 22.17 0.05 4.03 0.09 -40.41 0.09 -44.44 0 -62.58 -0.05 -40.36 -0.09z"/>
  <path d="M320.51 349.71 c0 -2.55 0.05 -3.52 0.14 -2.18 0.09 1.34 0.09 3.43 0 4.63 -0.09 1.20 -0.14 0.09 -0.14 -2.45z"/>
  <path d="M320.51 312.68 c0 -3.29 0.05 -4.58 0.14 -2.87 0.09 1.71 0.09 4.44 0 6.02 -0.09 1.57 -0.14 0.19 -0.14 -3.15z"/>
  <path d="M195.02 270 c22.31 -0.09 58.88 -0.09 81.24 0 22.31 0.05 4.03 0.09 -40.64 0.09 -44.67 0 -62.95 -0.05 -40.60 -0.09z"/>
  <path d="M151.13 238.39 c0 -14.91 0.05 -20.97 0.09 -13.52 0.09 7.41 0.09 19.63 0 27.08 -0.05 7.41 -0.09 1.34 -0.09 -13.56z"/>
  <path d="M321.48 238.39 c0 -14.91 0.05 -20.97 0.09 -13.52 0.09 7.41 0.09 19.63 0 27.08 -0.05 7.41 -0.09 1.34 -0.09 -13.56z"/>
  <path d="M208.95 243.71 c0 -3.29 0.05 -4.58 0.14 -2.87 0.09 1.71 0.09 4.44 0 6.02 -0.09 1.57 -0.14 0.19 -0.14 -3.15z"/>
  <path d="M259.87 240.93 c0 -2.78 0.05 -3.89 0.14 -2.41 0.09 1.48 0.09 3.75 0 5.09 -0.09 1.34 -0.14 0.14 -0.14 -2.68z"/>
  <path d="M263.94 233.30 c0 -0.88 0.09 -1.25 0.23 -0.79 0.09 0.42 0.09 1.16 0 1.62 -0.14 0.42 -0.23 0.05 -0.23 -0.83z"/>
  <path d="M179.28 206.13 c13.47 -0.09 35.32 -0.09 48.60 0 13.28 0.05 2.31 0.09 -24.44 0.09 -26.71 0 -37.59 -0.05 -24.16 -0.09z"/>
  <path d="M305.42 206.13 c2.13 -0.09 5.46 -0.09 7.41 0 1.94 0.05 0.23 0.14 -3.84 0.14 -4.07 0 -5.69 -0.09 -3.56 -0.14z"/>
  <path d="M214.46 190.85 c0.69 -0.09 1.81 -0.09 2.55 0 0.69 0.09 0.09 0.19 -1.30 0.19 -1.39 0 -1.99 -0.09 -1.25 -0.19z"/>
  <path d="M222.09 190.85 c0.56 -0.09 1.39 -0.09 1.85 0 0.42 0.14 -0.05 0.23 -1.06 0.19 -1.02 0 -1.39 -0.09 -0.79 -0.19z"/>
  <path d="M317.54 179.37 c0.88 -0.88 1.67 -1.62 1.81 -1.62 0.14 0 -0.46 0.74 -1.34 1.62 -0.88 0.88 -1.67 1.62 -1.81 1.62 -0.14 0 0.46 -0.74 1.34 -1.62z"/>
  <path d="M185.76 169.88 c0 -2.18 0.09 -3.06 0.19 -1.94 0.09 1.06 0.09 2.82 0 3.93 -0.09 1.06 -0.19 0.19 -0.19 -1.99z"/>
  <path d="M324.95 171.96 c0.88 -0.88 1.67 -1.62 1.81 -1.62 0.14 0 -0.46 0.74 -1.34 1.62 -0.88 0.88 -1.67 1.62 -1.81 1.62 -0.14 0 0.46 -0.74 1.34 -1.62z"/>
  <path d="M195.52 167.10 c0 -3.43 0.05 -4.86 0.14 -3.10 0.09 1.71 0.09 4.49 0 6.25 -0.09 1.71 -0.14 0.28 -0.14 -3.15z"/>
  <path d="M117.76 168.26 c0 -2.55 0.05 -3.52 0.14 -2.18 0.09 1.34 0.09 3.43 0 4.63 -0.09 1.20 -0.14 0.09 -0.14 -2.45z"/>
  <path d="M332.36 164.56 c0.88 -0.88 1.67 -1.62 1.81 -1.62 0.14 0 -0.46 0.74 -1.34 1.62 -0.88 0.88 -1.67 1.62 -1.81 1.62 -0.14 0 0.46 -0.74 1.34 -1.62z"/>
  <path d="M296.25 162.24 c1.39 -1.39 2.64 -2.55 2.73 -2.55 0.14 0 -0.88 1.16 -2.27 2.55 -1.39 1.39 -2.64 2.55 -2.73 2.55 -0.14 0 0.88 -1.16 2.27 -2.55z"/>
  <path d="M185.76 160.85 c0 -1.53 0.09 -2.08 0.19 -1.25 0.09 0.83 0.09 2.08 0 2.78 -0.09 0.69 -0.19 0 -0.19 -1.53z"/>
  <path d="M418.59 155.07 c0 -1.90 0.09 -2.68 0.19 -1.71 0.09 0.93 0.09 2.50 0 3.47 -0.09 0.93 -0.19 0.14 -0.19 -1.76z"/>
  <path d="M207.98 154.61 c0 -1.16 0.09 -1.62 0.19 -1.02 0.09 0.56 0.09 1.48 0 2.08 -0.09 0.56 -0.19 0.09 -0.19 -1.06z"/>
  <path d="M185.76 152.99 c0 -1.02 0.09 -1.39 0.19 -0.79 0.09 0.56 0.09 1.39 0 1.85 -0.14 0.42 -0.23 -0.05 -0.19 -1.06z"/>
  <path d="M117.76 146.04 c0 -2.78 0.05 -3.89 0.14 -2.41 0.09 1.48 0.09 3.75 0 5.09 -0.09 1.34 -0.14 0.14 -0.14 -2.68z"/>
  <path d="M195.52 145.35 c0 -2.41 0.05 -3.43 0.14 -2.18 0.09 1.20 0.09 3.15 0 4.40 -0.09 1.20 -0.14 0.19 -0.14 -2.22z"/>
  <path d="M185.80 139.10 c0 -3.29 0.05 -4.58 0.14 -2.87 0.09 1.71 0.09 4.44 0 6.02 -0.09 1.57 -0.14 0.19 -0.14 -3.15z"/>
  <path d="M430.16 143.17 c0.69 -0.09 1.71 -0.09 2.31 0 0.56 0.09 0 0.19 -1.30 0.19 -1.25 0 -1.76 -0.09 -1.02 -0.19z"/>
  <path d="M154.74 141.32 c0.69 -0.09 1.71 -0.09 2.31 0 0.56 0.09 0 0.19 -1.30 0.19 -1.25 0 -1.76 -0.09 -1.02 -0.19z"/>
  <path d="M418.64 136.78 c0 -2.27 0.05 -3.29 0.14 -2.22 0.09 1.06 0.09 2.96 0 4.17 -0.09 1.20 -0.14 0.37 -0.14 -1.94z"/>
  <path d="M422.76 135.40 c0 -1.53 0.09 -2.08 0.19 -1.25 0.09 0.83 0.09 2.08 0 2.78 -0.09 0.69 -0.19 0 -0.19 -1.53z"/>
  <path d="M324.02 130.91 c1.11 -1.25 2.08 -2.22 2.18 -2.22 0.37 0 0 0.42 -2.04 2.31 l-2.22 2.08 2.08 -2.18z"/>
  <path d="M408.04 88.88 c4.30 -4.30 7.96 -7.87 8.10 -7.87 0.14 0 -3.33 3.56 -7.64 7.87 -4.30 4.35 -7.96 7.87 -8.10 7.87 -0.14 0 3.33 -3.52 7.64 -7.87z"/>
  <path d="M362.44 96.14 c0 -0.09 0.69 -0.74 1.53 -1.53 l1.48 -1.34 -1.34 1.53 c-1.30 1.39 -1.67 1.71 -1.67 1.34z"/>
  <path d="M371.70 86.93 c1.90 -2.08 2.31 -2.45 2.31 -2.08 0 0.09 -0.97 1.06 -2.18 2.18 l-2.22 2.08 2.08 -2.18z"/>
  <path d="M375.54 83.09 l1.25 -1.39 1.30 1.39 1.25 1.34 -1.25 -1.11 -1.30 -1.06 -1.25 1.06 -1.30 1.11 1.30 -1.34z"/>
  <path d="M407.39 81.24 c-1.06 -1.20 -1.90 -2.31 -1.81 -2.55 0.09 -0.23 3.98 -4.26 8.66 -9.03 9.12 -9.21 8.98 -9.12 10.51 -6.20 1.02 2.04 0.79 4.21 -0.60 6.11 -1.67 2.13 -13.79 13.75 -14.40 13.75 -0.23 0 -1.30 -0.93 -2.36 -2.08z"/>
  <path d="M420.30 76.61 c1.39 -1.39 2.64 -2.55 2.73 -2.55 0.14 0 -0.88 1.16 -2.27 2.55 -1.39 1.39 -2.64 2.55 -2.73 2.55 -0.14 0 0.88 -1.16 2.27 -2.55z"/>
  <path d="M393.23 61.10 c1.25 -1.25 2.36 -2.31 2.50 -2.31 0.14 0 -0.79 1.06 -2.04 2.31 -1.25 1.30 -2.36 2.31 -2.50 2.31 -0.14 0 0.79 -1.02 2.04 -2.31z"/>
  <path d="M417.53 56.24 c-1.90 -1.90 -3.33 -3.47 -3.19 -3.47 0.09 0 1.76 1.57 3.66 3.47 1.90 1.90 3.33 3.47 3.19 3.47 -0.09 0 -1.76 -1.57 -3.66 -3.47z"/>
  <path d="M223.72 53.46 c0 -1.76 0.09 -2.45 0.19 -1.48 0.09 0.93 0.09 2.41 0 3.24 -0.09 0.79 -0.19 0.05 -0.19 -1.76z"/>
  <path d="M210.75 42.26 c1.20 -0.09 3.10 -0.09 4.17 0 1.06 0.09 0.09 0.14 -2.22 0.14 -2.27 0 -3.15 -0.05 -1.94 -0.14z"/>
  <path d="M227.65 42.26 c0.83 -0.09 2.08 -0.09 2.78 0 0.69 0.09 0 0.19 -1.53 0.19 -1.53 0 -2.08 -0.09 -1.25 -0.19z"/>
  <path d="M223.72 35.64 c0 -2.18 0.09 -3.06 0.19 -1.94 0.09 1.06 0.09 2.82 0 3.93 -0.09 1.06 -0.19 0.19 -0.19 -1.99z"/>
 </g>
 <g fill="#7968d4">
  <path d="M315.55 354.25 c0.83 -0.09 2.31 -0.09 3.24 0 0.97 0.09 0.32 0.19 -1.48 0.19 -1.76 0 -2.55 -0.09 -1.76 -0.19z"/>
  <path d="M184.37 269.08 c1.48 -0.09 3.75 -0.09 5.09 0 1.34 0.09 0.14 0.14 -2.68 0.14 -2.78 0 -3.89 -0.05 -2.41 -0.14z"/>
  <path d="M201.73 269.08 c1.57 -0.09 4.07 -0.09 5.55 0 1.43 0.09 0.14 0.14 -2.92 0.14 -3.06 0 -4.26 -0.05 -2.64 -0.14z"/>
  <path d="M221.59 269.08 c0.83 -0.09 2.31 -0.09 3.24 0 0.97 0.09 0.32 0.19 -1.48 0.19 -1.76 0 -2.55 -0.09 -1.76 -0.19z"/>
  <path d="M228.81 269.08 c0.69 -0.09 1.81 -0.09 2.55 0 0.69 0.09 0.09 0.19 -1.30 0.19 -1.39 0 -1.99 -0.09 -1.25 -0.19z"/>
  <path d="M245.47 269.08 c1.71 -0.09 4.44 -0.09 6.02 0 1.57 0.09 0.19 0.14 -3.15 0.14 -3.29 0 -4.58 -0.05 -2.87 -0.14z"/>
  <path d="M258.66 269.08 c1.06 -0.09 2.73 -0.09 3.70 0 0.93 0.09 0.05 0.19 -1.99 0.19 -2.04 0 -2.82 -0.09 -1.71 -0.19z"/>
  <path d="M281.34 269.08 c0.56 -0.09 1.39 -0.09 1.85 0 0.42 0.14 -0.05 0.23 -1.06 0.19 -1.02 0 -1.39 -0.09 -0.79 -0.19z"/>
  <path d="M287.13 269.08 c0.69 -0.09 1.71 -0.09 2.31 0 0.56 0.09 0 0.19 -1.30 0.19 -1.25 0 -1.76 -0.09 -1.02 -0.19z"/>
  <path d="M294.77 269.08 c0.56 -0.09 1.39 -0.09 1.85 0 0.42 0.14 -0.05 0.23 -1.06 0.19 -1.02 0 -1.39 -0.09 -0.79 -0.19z"/>
  <path d="M150.12 256.44 c0 -1.39 0.09 -1.99 0.19 -1.25 0.09 0.69 0.09 1.81 0 2.55 -0.09 0.69 -0.19 0.09 -0.19 -1.30z"/>
  <path d="M150.16 237.93 c0 -8.79 0.09 -12.36 0.14 -7.96 0.09 4.35 0.09 11.57 0 15.97 -0.05 4.35 -0.14 0.79 -0.14 -8.01z"/>
  <path d="M273.24 243.25 c0 -1.76 0.09 -2.45 0.19 -1.48 0.09 0.93 0.09 2.41 0 3.24 -0.09 0.79 -0.19 0.05 -0.19 -1.76z"/>
  <path d="M259.77 234.69 c0 -0.88 0.09 -1.25 0.23 -0.79 0.09 0.42 0.09 1.16 0 1.62 -0.14 0.42 -0.23 0.05 -0.23 -0.83z"/>
  <path d="M150.12 219.64 c0 -1.02 0.09 -1.39 0.19 -0.79 0.09 0.56 0.09 1.39 0 1.85 -0.14 0.42 -0.23 -0.05 -0.19 -1.06z"/>
  <path d="M181.13 206.59 c1.48 -0.09 3.75 -0.09 5.09 0 1.34 0.09 0.14 0.14 -2.68 0.14 -2.78 0 -3.89 -0.05 -2.41 -0.14z"/>
  <path d="M296.25 206.45 l-4.40 -0.28 4.86 -0.05 c2.68 0 5.51 0.14 6.25 0.32 1.30 0.32 1.25 0.37 -0.46 0.32 -1.02 0 -3.84 -0.19 -6.25 -0.32z"/>
  <path d="M263.71 200.06 c-1.20 -1.20 -2.18 -2.41 -2.18 -2.64 0 -0.56 114.61 -115.03 115.17 -115.03 0.23 0 0.79 0.42 1.25 0.93 0.46 0.51 1.06 0.93 1.34 0.93 0.28 0 1.11 0.65 1.81 1.39 0.74 0.79 1.02 1.30 0.65 1.11 -0.42 -0.14 -19.90 19.12 -58.23 57.63 l-57.63 57.91 -2.18 -2.22z"/>
  <path d="M71.42 190.85 c5.55 -0.09 14.53 -0.09 19.90 0 5.42 0.05 0.88 0.09 -10.09 0.09 -10.97 0 -15.37 -0.05 -9.81 -0.09z"/>
  <path d="M125.81 190.85 c8.19 -0.09 21.62 -0.09 29.86 0 8.19 0.05 1.48 0.09 -14.95 0.09 -16.43 0 -23.14 -0.05 -14.91 -0.09z"/>
  <path d="M182.52 190.85 c5.83 -0.09 15.18 -0.09 20.83 0 5.65 0.05 0.93 0.09 -10.55 0.09 -11.43 0 -16.06 -0.05 -10.28 -0.09z"/>
  <path d="M218.85 190.85 c0.56 -0.09 1.39 -0.09 1.85 0 0.42 0.14 -0.05 0.23 -1.06 0.19 -1.02 0 -1.39 -0.09 -0.79 -0.19z"/>
  <path d="M227.88 190.85 c1.99 -0.09 5.09 -0.09 6.94 0 1.85 0.05 0.23 0.14 -3.61 0.14 -3.80 0 -5.32 -0.09 -3.33 -0.14z"/>
  <path d="M242.93 190.85 c2.13 -0.09 5.46 -0.09 7.41 0 1.94 0.05 0.23 0.14 -3.84 0.14 -4.07 0 -5.69 -0.09 -3.56 -0.14z"/>
  <path d="M313.38 183.63 c0 -0.09 0.69 -0.74 1.53 -1.53 l1.48 -1.34 -1.34 1.53 c-1.30 1.39 -1.67 1.71 -1.67 1.34z"/>
  <path d="M185.71 164.79 c0 -0.88 0.09 -1.25 0.23 -0.79 0.09 0.42 0.09 1.16 0 1.62 -0.14 0.42 -0.23 0.05 -0.23 -0.83z"/>
  <path d="M185.76 156.46 c0 -1.16 0.09 -1.62 0.19 -1.02 0.09 0.56 0.09 1.48 0 2.08 -0.09 0.56 -0.19 0.09 -0.19 -1.06z"/>
  <path d="M422.76 152.06 c0 -1.02 0.09 -1.39 0.19 -0.79 0.09 0.56 0.09 1.39 0 1.85 -0.14 0.42 -0.23 -0.05 -0.19 -1.06z"/>
  <path d="M185.76 148.13 c0 -1.90 0.09 -2.68 0.19 -1.71 0.09 0.93 0.09 2.50 0 3.47 -0.09 0.93 -0.19 0.14 -0.19 -1.76z"/>
  <path d="M53.83 132.39 c0 -1.16 0.09 -1.62 0.19 -1.02 0.09 0.56 0.09 1.48 0 2.08 -0.09 0.56 -0.19 0.09 -0.19 -1.06z"/>
  <path d="M416.37 77.30 c1.76 -1.76 3.33 -3.24 3.43 -3.24 0.14 0 -1.20 1.48 -2.96 3.24 -1.76 1.81 -3.33 3.24 -3.43 3.24 -0.14 0 1.20 -1.43 2.96 -3.24z"/>
  <path d="M232.05 42.26 c0.42 -0.09 1.16 -0.09 1.62 0 0.42 0.14 0.05 0.23 -0.83 0.23 -0.88 0 -1.25 -0.09 -0.79 -0.23z"/>
 </g>
 <g fill="#6452ba">
  <path d="M112.95 405.03 c-2.18 -0.14 -4.35 -0.51 -4.91 -0.79 -2.08 -1.16 -4.26 -4.17 -4.77 -6.57 -0.37 -1.71 -0.51 -31.62 -0.51 -104.66 l0 -102.30 -21.29 0 c-20.32 0 -21.43 -0.05 -23.14 -0.93 -2.36 -1.20 -3.61 -3.06 -4.21 -6.20 -0.28 -1.67 -0.42 -13.84 -0.32 -33.93 0.14 -25.27 0.28 -31.62 0.79 -32.54 0.69 -1.20 3.61 -4.12 4.26 -4.21 0.23 -0.05 0.60 -0.09 0.83 -0.14 0.23 0 0.60 -0.19 0.79 -0.42 0.19 -0.19 9.44 -0.32 20.51 -0.32 11.11 0 20.55 0 21.02 0 0.69 0 0.79 -0.65 0.79 -6.80 0 -5.97 0.14 -7.04 0.97 -8.79 0.79 -1.67 3.61 -4.30 4.58 -4.30 0.14 0 0.23 4.49 0.23 10 l0 10 73.28 -0.05 c51.98 -0.05 73.51 0.05 73.92 0.42 0.32 0.28 0.79 0.46 0.97 0.42 1.02 -0.19 1.67 0.14 3.10 1.62 1.62 1.57 2.41 2.96 2.22 3.70 -0.05 0.28 0.14 0.88 0.42 1.43 0.74 1.43 0.46 64.43 -0.32 65.82 -0.60 0.97 -2.45 2.96 -4.07 4.30 -0.74 0.60 -10 0.74 -75.17 0.93 l-74.34 0.23 0 99.29 0 99.29 1.30 2.64 c0.74 1.48 2.08 3.29 3.01 4.07 3.66 3.01 -5.97 2.78 123.08 2.78 65.04 0 117.25 0.19 117.25 0.42 0 0.88 -3.84 4.63 -5.23 5.09 -1.57 0.56 -227.14 0.97 -235.01 0.51z m5 -231.63 c0.32 -0.19 0.46 -2.55 0.42 -6.99 l-0.09 -6.71 4.49 0 c2.50 0 4.54 -0.19 4.54 -0.42 0 -0.23 0.42 -0.32 0.93 -0.19 0.51 0.14 0.93 0 0.93 -0.28 0 -0.23 0.32 -0.37 0.69 -0.23 0.37 0.19 0.69 0.05 0.69 -0.23 0 -0.28 0.32 -0.37 0.69 -0.23 0.37 0.19 0.79 -0.05 0.97 -0.46 0.14 -0.42 0.46 -0.60 0.69 -0.46 0.23 0.14 0.56 -0.09 0.69 -0.46 0.14 -0.42 0.42 -0.65 0.65 -0.51 0.93 0.56 4.95 -5.69 4.44 -6.99 -0.14 -0.32 -0.05 -0.74 0.19 -0.88 0.60 -0.37 0.60 -5.32 0.05 -5.32 -0.23 0 -0.32 -0.37 -0.19 -0.88 0.09 -0.46 -0.09 -1.16 -0.51 -1.53 -0.37 -0.42 -0.56 -0.83 -0.42 -1.02 0.19 -0.14 0.05 -0.28 -0.23 -0.28 -0.32 0 -0.51 -0.19 -0.42 -0.42 0.05 -0.23 -0.32 -0.79 -0.83 -1.20 -0.51 -0.42 -0.60 -0.60 -0.23 -0.42 0.46 0.23 0.42 0.05 -0.19 -0.65 -0.46 -0.56 -1.02 -0.88 -1.20 -0.79 -0.19 0.14 -0.51 -0.09 -0.65 -0.51 -0.14 -0.37 -0.46 -0.56 -0.74 -0.42 -0.23 0.14 -0.46 0.05 -0.46 -0.23 0 -0.51 -1.94 -1.39 -3.47 -1.57 -0.56 -0.05 -1.16 -0.23 -1.39 -0.32 -0.28 -0.14 -5 -0.19 -10.51 -0.05 l-10.09 0.19 0 20.32 0 20.27 4.07 0.14 c4.95 0.19 5.83 0.14 6.48 -0.28z m44.99 0.19 c0 -0.19 0.51 -0.23 1.16 -0.09 0.65 0.09 1.16 0 1.16 -0.28 0 -0.28 0.37 -0.37 0.88 -0.23 0.46 0.09 1.16 -0.09 1.53 -0.51 0.42 -0.37 0.83 -0.56 0.97 -0.42 0.74 0.69 7.87 -4.91 7.87 -6.16 0 -0.23 0.32 -0.65 0.74 -0.97 0.42 -0.32 0.56 -0.60 0.37 -0.60 -0.23 0 -0.05 -0.32 0.32 -0.74 0.42 -0.37 0.65 -0.93 0.51 -1.16 -0.19 -0.23 -0.05 -0.42 0.23 -0.42 0.28 0 0.37 -0.19 0.23 -0.46 -0.14 -0.23 -0.05 -0.46 0.23 -0.46 0.32 0 0.46 -0.32 0.32 -0.69 -0.19 -0.37 -0.09 -0.79 0.19 -0.97 0.28 -0.14 0.37 -0.56 0.23 -0.88 -0.09 -0.32 -0.09 -0.74 0.09 -0.93 0.46 -0.42 0.51 -9.03 0.05 -9.03 -0.19 0 -0.23 -0.42 -0.09 -0.93 0.14 -0.51 0 -0.93 -0.28 -0.93 -0.23 0 -0.37 -0.32 -0.23 -0.69 0.19 -0.37 0.05 -0.69 -0.23 -0.69 -0.28 0 -0.46 -0.14 -0.46 -0.32 0.19 -1.02 -0.14 -1.90 -0.93 -2.78 -0.51 -0.56 -0.79 -1.06 -0.65 -1.20 0.14 -0.14 -0.93 -1.43 -2.36 -2.92 -1.48 -1.43 -2.78 -2.50 -2.92 -2.36 -0.14 0.14 -0.69 -0.14 -1.20 -0.65 -0.56 -0.51 -1.25 -0.79 -1.57 -0.69 -0.32 0.14 -0.60 0.05 -0.60 -0.19 0 -0.51 -3.66 -1.57 -4.07 -1.20 -0.14 0.14 -0.46 0.09 -0.74 -0.09 -0.28 -0.23 -4.81 -0.32 -10.09 -0.19 l-9.63 0.19 0 7.50 c-0.05 4.07 -0.09 12.87 -0.14 19.49 -0.09 6.62 0 12.45 0.19 12.96 0.28 0.88 0.74 0.93 9.63 0.97 5.09 0 9.30 -0.09 9.30 -0.28z m32.82 -0.19 c0.37 -0.46 0.46 -2.68 0.32 -7.04 -0.32 -9.21 -0.83 -8.52 5.93 -8.52 6.62 0 6.53 0.09 6.53 -5.05 l0 -3.38 -6.48 0 c-4.07 0 -5.88 -0.14 -4.86 -0.37 1.48 -0.32 1.48 -0.32 0.37 -0.42 -1.30 -0.05 -1.30 -0.05 -1.30 -3.47 l0 -3.43 7.68 -0.05 c4.21 -0.05 7.82 -0.14 8.01 -0.28 0.42 -0.23 0.28 -8.05 -0.14 -8.47 -0.32 -0.32 -25.83 -0.14 -26.15 0.19 -0.14 0.09 -0.23 9.26 -0.28 20.32 -0.09 18.05 0 20.09 0.65 20.23 0.42 0.09 2.64 0.19 5 0.23 3.06 0.09 4.35 -0.05 4.72 -0.51z"/>
  <path d="M121.42 150.53 l-2.92 -0.14 0 -4.35 0 -4.30 3.43 -0.19 c1.90 -0.09 3.33 0 3.19 0.23 -0.19 0.32 0.09 0.42 1.67 0.51 0.37 0.05 0.69 0.46 0.79 0.93 0.05 0.46 0.28 1.02 0.51 1.16 0.56 0.42 0.60 2.87 0 2.50 -0.28 -0.19 -0.37 0.09 -0.23 0.69 0.19 0.56 0.09 0.93 -0.14 0.74 -0.23 -0.14 -0.42 0 -0.42 0.28 0 0.28 -0.56 0.74 -1.25 1.06 -0.74 0.28 -1.39 0.65 -1.53 0.79 -0.14 0.14 -1.53 0.19 -3.10 0.09z"/>
  <path d="M153.73 153.45 l-0.05 -11.57 3.56 0.09 c1.99 0.05 3.93 0.19 4.30 0.32 0.37 0.14 1.11 0.28 1.57 0.37 1.25 0.19 4.26 3.01 4.91 4.58 0.32 0.74 0.74 1.34 0.93 1.34 0.19 0 0.23 0.51 0.09 1.16 -0.09 0.69 0 1.16 0.32 1.16 0.65 0 0.69 4.03 0 4.44 -0.28 0.14 -0.42 0.69 -0.28 1.16 0.14 0.46 0.05 1.02 -0.19 1.16 -0.23 0.14 -0.32 0.46 -0.19 0.69 0.19 0.23 0.05 0.42 -0.23 0.42 -0.28 0 -0.37 0.23 -0.23 0.46 0.14 0.28 0.05 0.46 -0.19 0.46 -0.28 0 -0.46 0.14 -0.42 0.37 0.14 0.37 -2.04 2.59 -2.68 2.73 -0.69 0.14 -3.61 1.16 -4.35 1.48 -0.88 0.42 -6.30 -0.05 -6.11 -0.51 0.05 -0.23 0.05 -0.93 0 -1.62 -0.05 -0.88 -0.14 -0.60 -0.37 0.79 -0.19 1.16 -0.37 -3.10 -0.42 -9.49z"/>
  <path d="M152.29 347.91 l0 -5.93 1.43 0.28 c0.79 0.14 38.51 0.28 83.78 0.28 l82.35 0 0 5.55 0 5.55 -83.78 0.09 -83.78 0.14 0 -5.97z"/>
  <path d="M152.38 312.68 l0.14 -6.02 83.78 -0.14 83.78 -0.09 0 6.11 0 6.16 -83.92 0 -83.92 0 0.14 -6.02z"/>
  <path d="M154.65 269.59 c0.23 -0.28 0.23 -0.69 0.05 -0.93 -0.19 -0.19 0.09 -0.09 0.56 0.28 0.60 0.46 0.79 0.46 0.56 0.14 -0.28 -0.46 15.92 -0.60 80.22 -0.60 73.88 0 81.47 0.09 80.50 1.02 -0.09 0.09 -36.61 0.23 -81.24 0.37 -58.56 0.19 -80.96 0.09 -80.64 -0.28z m34.81 -0.51 c-1.34 -0.09 -3.61 -0.09 -5.09 0 -1.48 0.09 -0.37 0.14 2.41 0.14 2.82 0 4.03 -0.05 2.68 -0.14z m17.82 0 c-1.48 -0.09 -3.98 -0.09 -5.55 0 -1.62 0.09 -0.42 0.14 2.64 0.14 3.06 0 4.35 -0.05 2.92 -0.14z m17.54 0 c-0.93 -0.09 -2.41 -0.09 -3.24 0 -0.79 0.09 0 0.19 1.76 0.19 1.81 0 2.45 -0.09 1.48 -0.19z m6.53 0 c-0.74 -0.09 -1.85 -0.09 -2.55 0 -0.74 0.09 -0.14 0.19 1.25 0.19 1.39 0 1.99 -0.09 1.30 -0.19z m20.14 0 c-1.57 -0.09 -4.30 -0.09 -6.02 0 -1.71 0.09 -0.42 0.14 2.87 0.14 3.33 0 4.72 -0.05 3.15 -0.14z m10.88 0 c-0.97 -0.09 -2.64 -0.09 -3.70 0 -1.11 0.09 -0.32 0.19 1.71 0.19 2.04 0 2.92 -0.09 1.99 -0.19z m20.83 0 c-0.46 -0.09 -1.30 -0.09 -1.85 0 -0.60 0.09 -0.23 0.19 0.79 0.19 1.02 0.05 1.48 -0.05 1.06 -0.19z m6.25 0 c-0.60 -0.09 -1.62 -0.09 -2.31 0 -0.74 0.09 -0.23 0.19 1.02 0.19 1.30 0 1.85 -0.09 1.30 -0.19z m7.17 0 c-0.46 -0.09 -1.30 -0.09 -1.85 0 -0.60 0.09 -0.23 0.19 0.79 0.19 1.02 0.05 1.48 -0.05 1.06 -0.19z"/>
  <path d="M149.51 238.34 c0 -23.89 0.09 -26.85 0.69 -26.34 0.60 0.51 0.69 4.07 0.69 26.89 0 23.10 -0.09 26.34 -0.69 26.34 -0.60 0 -0.69 -3.29 -0.69 -26.89z m0.79 16.85 c-0.09 -0.74 -0.19 -0.14 -0.19 1.25 0 1.39 0.09 1.99 0.19 1.30 0.09 -0.74 0.09 -1.85 0 -2.55z m0 -25.23 c-0.05 -4.40 -0.14 -0.83 -0.14 7.96 0 8.79 0.09 12.36 0.14 8.01 0.09 -4.40 0.09 -11.62 0 -15.97z m0 -11.11 c-0.09 -0.60 -0.19 -0.23 -0.19 0.79 -0.05 1.02 0.05 1.48 0.19 1.06 0.09 -0.46 0.09 -1.30 0 -1.85z"/>
  <path d="M319.86 238.43 c0 -16.25 0.19 -26.89 0.42 -26.89 0.88 0 1.02 5.18 0.88 29.12 -0.09 18.89 -0.28 24.30 -0.69 24.49 -0.46 0.14 -0.60 -5.42 -0.60 -26.71z"/>
  <path d="M286.76 210.15 c1.25 -1.25 2.36 -2.31 2.50 -2.31 0.14 0 -0.79 1.06 -2.04 2.31 -1.25 1.30 -2.36 2.31 -2.50 2.31 -0.14 0 0.79 -1.02 2.04 -2.31z"/>
  <path d="M269.87 206.22 l-3.93 -3.93 14.86 -14.95 c52.35 -52.68 100.40 -100.77 100.72 -100.77 0.19 0 1.48 1.11 2.82 2.50 1.39 1.39 3.06 2.87 3.75 3.29 0.65 0.42 1.06 1.02 0.88 1.30 -0.14 0.28 -0.05 0.32 0.23 0.14 0.28 -0.14 0.74 0.09 1.02 0.60 0.37 0.79 0.37 0.88 -0.19 0.69 -0.46 -0.19 -19.35 18.47 -58.19 57.40 -31.62 31.71 -57.63 57.68 -57.77 57.68 -0.19 0 -2.08 -1.76 -4.21 -3.93z"/>
  <path d="M202.98 207.84 c-26.48 -0.14 -48.19 -0.28 -48.23 -0.37 -0.09 -0.05 -0.14 -0.28 -0.14 -0.51 0 -0.23 21.02 -0.42 48.56 -0.46 48.37 -0.05 48.56 -0.05 48.33 0.88 -0.14 0.51 -0.28 0.88 -0.32 0.83 0 -0.09 -21.71 -0.23 -48.19 -0.37z"/>
  <path d="M292.55 207.42 c-5.23 -0.56 -1.25 -0.88 11.25 -0.88 12.22 -0.05 16.15 0.37 10 1.02 -3.38 0.32 -17.59 0.23 -21.25 -0.14z"/>
  <path d="M292.08 204.92 c0 -0.09 0.69 -0.74 1.53 -1.53 l1.48 -1.34 -1.34 1.53 c-1.30 1.39 -1.67 1.71 -1.67 1.34z"/>
  <path d="M298.56 198.35 c1.39 -1.39 2.64 -2.55 2.73 -2.55 0.14 0 -0.88 1.16 -2.27 2.55 -1.39 1.39 -2.64 2.55 -2.73 2.55 -0.14 0 0.88 -1.16 2.27 -2.55z"/>
  <path d="M263.85 194.18 c1.62 -1.67 3.10 -3.01 3.19 -3.01 0.14 0 -1.11 1.34 -2.73 3.01 -1.62 1.67 -3.10 3.01 -3.19 3.01 -0.14 0 1.11 -1.34 2.73 -3.01z"/>
  <path d="M286.76 168.03 c2.04 -2.04 3.80 -3.70 3.93 -3.70 0.09 0 -1.43 1.67 -3.47 3.70 -2.04 2.04 -3.80 3.70 -3.93 3.70 -0.09 0 1.43 -1.67 3.47 -3.70z"/>
  <path d="M335.60 161.32 c0.88 -0.88 1.67 -1.62 1.81 -1.62 0.14 0 -0.46 0.74 -1.34 1.62 -0.88 0.88 -1.67 1.62 -1.81 1.62 -0.14 0 0.46 -0.74 1.34 -1.62z"/>
  <path d="M411.65 147.34 c0.69 -0.09 1.81 -0.09 2.55 0 0.69 0.09 0.09 0.19 -1.30 0.19 -1.39 0 -1.99 -0.09 -1.25 -0.19z"/>
  <path d="M427.62 147.34 c1.06 -0.09 2.82 -0.09 3.93 0 1.06 0.09 0.19 0.19 -1.99 0.19 -2.18 0 -3.06 -0.09 -1.94 -0.19z"/>
  <path d="M373.32 123.59 c1.76 -1.76 3.33 -3.24 3.43 -3.24 0.14 0 -1.20 1.48 -2.96 3.24 -1.76 1.81 -3.33 3.24 -3.43 3.24 -0.14 0 1.20 -1.43 2.96 -3.24z"/>
  <path d="M339.53 115.26 c4.07 -4.07 7.50 -7.41 7.64 -7.41 0.14 0 -3.10 3.33 -7.17 7.41 -4.07 4.07 -7.50 7.41 -7.64 7.41 -0.14 0 3.10 -3.33 7.17 -7.41z"/>
  <path d="M380.73 116.19 c1.53 -1.53 2.87 -2.78 2.96 -2.78 0.14 0 -0.97 1.25 -2.50 2.78 -1.53 1.53 -2.87 2.78 -2.96 2.78 -0.14 0 0.97 -1.25 2.50 -2.78z"/>
  <path d="M388.13 108.78 c1.25 -1.25 2.36 -2.31 2.50 -2.31 0.14 0 -0.79 1.06 -2.04 2.31 -1.25 1.30 -2.36 2.31 -2.50 2.31 -0.14 0 0.79 -1.02 2.04 -2.31z"/>
  <path d="M356.89 97.90 c5.23 -5.23 9.58 -9.49 9.72 -9.49 0.14 0 -4.03 4.26 -9.26 9.49 -5.23 5.23 -9.58 9.49 -9.72 9.49 -0.14 0 4.03 -4.26 9.26 -9.49z"/>
  <path d="M388.83 104.38 c1.62 -1.67 3.10 -3.01 3.19 -3.01 0.14 0 -1.11 1.34 -2.73 3.01 -1.62 1.67 -3.10 3.01 -3.19 3.01 -0.14 0 1.11 -1.34 2.73 -3.01z"/>
  <path d="M394.61 102.30 c1.25 -1.25 2.36 -2.31 2.50 -2.31 0.14 0 -0.79 1.06 -2.04 2.31 -1.25 1.30 -2.36 2.31 -2.50 2.31 -0.14 0 0.79 -1.02 2.04 -2.31z"/>
  <path d="M393.18 100.12 c0.74 -0.88 0.79 -1.16 0.23 -1.85 -0.56 -0.79 -0.56 -0.79 0.28 0 0.88 0.79 0.88 0.79 -0.23 1.85 l-1.11 1.02 0.83 -1.02z"/>
  <path d="M367.07 87.81 c0 -0.05 1.62 -1.67 3.61 -3.56 l3.56 -3.47 -3.47 3.61 c-3.19 3.29 -3.70 3.80 -3.70 3.43z"/>
  <path d="M411.51 82.16 c0.88 -0.88 1.67 -1.62 1.81 -1.62 0.14 0 -0.46 0.74 -1.34 1.62 -0.88 0.88 -1.67 1.62 -1.81 1.62 -0.14 0 0.46 -0.74 1.34 -1.62z"/>
  <path d="M379.80 74.99 c3.06 -3.06 5.65 -5.55 5.79 -5.55 0.09 0 -2.27 2.50 -5.32 5.55 -3.06 3.06 -5.65 5.55 -5.79 5.55 -0.09 0 2.27 -2.50 5.32 -5.55z"/>
  <path d="M419.84 55.22 l-3.01 -3.15 3.15 3.01 c2.87 2.78 3.33 3.24 2.96 3.24 -0.05 0 -1.48 -1.39 -3.10 -3.10z"/>
  <path d="M219.55 53.46 c0 -2.04 0.09 -2.82 0.19 -1.71 0.09 1.06 0.09 2.73 0 3.70 -0.09 0.93 -0.19 0.05 -0.19 -1.99z"/>
  <path d="M219.60 35.41 c0 -2.27 0.05 -3.29 0.14 -2.22 0.09 1.06 0.09 2.96 0 4.17 -0.09 1.20 -0.14 0.37 -0.14 -1.94z"/>
 </g>
 <g fill="#5a47b1">
  <path d="M111.88 405.17 c0.83 -0.09 2.31 -0.09 3.24 0 0.97 0.09 0.32 0.19 -1.48 0.19 -1.76 0 -2.55 -0.09 -1.76 -0.19z"/>
  <path d="M130.67 405.17 c5.79 -0.09 15.23 -0.09 21.06 0 5.79 0.05 1.02 0.09 -10.55 0.09 -11.57 0 -16.34 -0.05 -10.51 -0.09z"/>
  <path d="M207.98 405.17 c24.35 -0.09 64.25 -0.09 88.64 0 24.35 0.05 4.40 0.09 -44.34 0.09 -48.74 0 -68.69 -0.05 -44.30 -0.09z"/>
  <path d="M343.84 405.17 c0.56 -0.09 1.39 -0.09 1.85 0 0.42 0.14 -0.05 0.23 -1.06 0.19 -1.02 0 -1.39 -0.09 -0.79 -0.19z"/>
  <path d="M108.55 288.98 l0 -98.04 1.30 -0.05 c1.16 -0.05 1.16 -0.05 0.09 0.14 l-1.16 0.19 -0.14 97.90 -0.09 97.86 0 -97.99z"/>
  <path d="M365.36 383.27 c0 -2.18 0.09 -3.06 0.19 -1.94 0.09 1.06 0.09 2.82 0 3.93 -0.09 1.06 -0.19 0.19 -0.19 -1.99z"/>
  <path d="M365.36 374.02 c0 -1.16 0.09 -1.62 0.19 -1.02 0.09 0.56 0.09 1.48 0 2.08 -0.09 0.56 -0.19 0.09 -0.19 -1.06z"/>
  <path d="M365.41 354.81 c0 -3.56 0.09 -4.95 0.14 -3.10 0.09 1.85 0.09 4.77 0 6.48 -0.09 1.71 -0.14 0.19 -0.14 -3.38z"/>
  <path d="M236.21 353.79 l83.64 -0.14 0 -5.55 0 -5.55 -82.95 -0.14 -83 -0.09 83.23 -0.14 83.18 -0.09 0 6.02 0 6.02 -83.88 -0.09 -83.92 -0.14 83.69 -0.09z"/>
  <path d="M365.45 324.25 c0 -11.43 0.05 -16.06 0.09 -10.28 0.09 5.83 0.09 15.18 0 20.83 -0.05 5.65 -0.09 0.93 -0.09 -10.55z"/>
  <path d="M176.92 318.61 c13.47 -0.09 35.41 -0.09 48.83 0 13.47 0.05 2.45 0.09 -24.39 0.09 -26.85 0 -37.86 -0.05 -24.44 -0.09z"/>
  <path d="M255.89 318.61 c3.15 -0.09 8.15 -0.09 11.11 0 2.96 0.05 0.42 0.14 -5.69 0.14 -6.11 0 -8.56 -0.09 -5.42 -0.14z"/>
  <path d="M284.82 318.61 c6.06 -0.09 15.88 -0.09 21.76 0 5.93 0.05 0.97 0.09 -11.02 0.09 -11.94 0 -16.80 -0.05 -10.74 -0.09z"/>
  <path d="M320.04 312.68 c0 -3.29 0.05 -4.58 0.14 -2.87 0.09 1.71 0.09 4.44 0 6.02 -0.09 1.57 -0.14 0.19 -0.14 -3.15z"/>
  <path d="M365.36 293.47 c0 -1.67 0.09 -2.31 0.19 -1.48 0.09 0.79 0.09 2.18 0 3.01 -0.09 0.79 -0.19 0.14 -0.19 -1.53z"/>
  <path d="M365.36 285.14 c0 -1.39 0.09 -1.99 0.19 -1.25 0.09 0.69 0.09 1.81 0 2.55 -0.09 0.69 -0.19 0.09 -0.19 -1.30z"/>
  <path d="M365.36 278.66 c0 -1.39 0.09 -1.99 0.19 -1.25 0.09 0.69 0.09 1.81 0 2.55 -0.09 0.69 -0.19 0.09 -0.19 -1.30z"/>
  <path d="M365.36 271.72 c0 -2.18 0.09 -3.06 0.19 -1.94 0.09 1.06 0.09 2.82 0 3.93 -0.09 1.06 -0.19 0.19 -0.19 -1.99z"/>
  <path d="M365.41 259.68 c0 -3.43 0.05 -4.86 0.14 -3.10 0.09 1.71 0.09 4.49 0 6.25 -0.09 1.71 -0.14 0.28 -0.14 -3.15z"/>
  <path d="M365.45 220.10 c0 -18.05 0.05 -25.55 0.09 -16.57 0.09 8.93 0.09 23.75 0 32.87 -0.05 9.12 -0.09 1.81 -0.09 -16.29z"/>
  <path d="M276.25 212.56 l-2.18 -2.18 57.54 -57.68 c31.62 -31.71 57.82 -57.77 58.19 -57.91 0.51 -0.19 1.48 0.46 3.01 1.99 l2.22 2.27 -4.58 4.63 c-2.50 2.50 -4.77 4.44 -5 4.30 -0.28 -0.14 -0.32 -0.05 -0.19 0.19 0.32 0.51 -1.20 2.18 -1.62 1.76 -0.14 -0.14 -0.51 0.14 -0.88 0.56 -0.60 0.79 -0.60 0.79 0.28 0.14 0.93 -0.65 0.93 -0.65 0.05 0.32 -0.46 0.60 -1.06 0.93 -1.34 0.74 -0.23 -0.14 -0.32 -0.05 -0.19 0.19 0.37 0.60 -1.25 2.13 -1.71 1.67 -0.19 -0.23 -0.28 -0.05 -0.19 0.32 0.05 0.37 -0.14 0.65 -0.46 0.56 -0.28 -0.05 -0.51 0.19 -0.46 0.46 0.09 0.32 -0.14 0.56 -0.46 0.46 -0.28 -0.05 -0.51 0.19 -0.46 0.46 0.09 0.32 -0.14 0.56 -0.46 0.46 -0.28 -0.05 -0.51 0.19 -0.46 0.46 0.09 0.32 -0.14 0.56 -0.46 0.46 -0.28 -0.05 -0.51 0.19 -0.46 0.46 0.09 0.32 -0.14 0.56 -0.46 0.46 -0.37 -0.05 -0.51 0.05 -0.37 0.28 0.32 0.56 -3.15 3.89 -3.66 3.47 -0.19 -0.23 -0.23 -0.14 -0.09 0.14 0.37 0.65 -3.06 4.03 -3.66 3.56 -0.23 -0.23 -0.28 -0.19 -0.05 0.09 0.46 0.51 -16.80 17.87 -17.40 17.50 -0.28 -0.14 -0.32 -0.09 -0.19 0.19 0.32 0.51 -6.76 7.73 -7.17 7.31 -0.14 -0.14 -0.51 0.14 -0.88 0.56 -0.60 0.79 -0.60 0.79 0.28 0.14 0.93 -0.65 0.93 -0.65 0.05 0.32 -0.46 0.60 -1.06 0.93 -1.34 0.74 -0.23 -0.14 -0.32 -0.09 -0.19 0.19 0.14 0.23 -0.46 1.16 -1.39 2.04 -0.93 0.88 -1.48 1.25 -1.30 0.88 0.37 -0.60 0.32 -0.60 -0.37 -0.05 -0.42 0.32 -0.79 0.88 -0.79 1.16 0 0.69 -13.15 13.79 -13.56 13.47 -0.19 -0.14 -0.23 -0.09 -0.09 0.09 0.37 0.46 -25.32 26.06 -25.78 25.78 -0.23 -0.14 -0.32 0 -0.28 0.37 0.09 0.32 -0.14 0.56 -0.46 0.46 -0.37 -0.05 -0.51 0.05 -0.37 0.28 0.32 0.56 -5 5.74 -5.46 5.32 -0.19 -0.23 -0.28 -0.05 -0.19 0.32 0.09 0.37 -0.14 0.65 -0.42 0.60 -0.32 -0.09 -0.56 0.14 -0.46 0.46 0.05 0.28 -0.19 0.51 -0.46 0.46 -0.32 -0.09 -0.56 0.14 -0.46 0.46 0.05 0.28 -0.19 0.51 -0.46 0.46 -0.32 -0.09 -0.56 0.14 -0.46 0.46 0.05 0.28 -0.19 0.51 -0.46 0.46 -0.32 -0.09 -0.56 0.14 -0.46 0.46 0.05 0.28 -0.19 0.51 -0.51 0.42 -0.37 -0.05 -0.51 0.05 -0.37 0.28 0.14 0.23 -1.43 2.04 -3.52 4.07 -2.04 1.99 -3.56 3.33 -3.33 2.96 0.28 -0.56 0.23 -0.60 -0.32 -0.14 -0.60 0.46 -1.06 0.19 -2.82 -1.62z m113.04 -108.18 c1.62 -1.67 2.87 -3.01 2.73 -3.01 -0.09 0 -1.57 1.34 -3.19 3.01 -1.62 1.67 -2.87 3.01 -2.73 3.01 0.09 0 1.57 -1.34 3.19 -3.01z m4.40 -6.11 c-0.83 -0.79 -0.83 -0.79 -0.28 0 0.56 0.69 0.51 0.97 -0.23 1.85 l-0.83 1.02 1.11 -1.02 c1.11 -1.06 1.11 -1.06 0.23 -1.85z"/>
  <path d="M320.83 212.84 c0 -0.65 -0.32 -1.34 -0.60 -1.43 -0.46 -0.19 -0.46 -0.28 0 -0.28 0.74 -0.05 1.16 1.02 0.88 2.13 -0.14 0.56 -0.23 0.42 -0.28 -0.42z"/>
  <path d="M289.77 207.47 c0 -0.19 0.88 -0.28 1.99 -0.19 3.24 0.23 3.52 0.46 0.69 0.51 -1.48 0 -2.68 -0.09 -2.68 -0.32z"/>
  <path d="M313.75 207.51 c0.56 -0.09 1.48 -0.09 2.08 0 0.56 0.09 0.09 0.19 -1.06 0.19 -1.16 0 -1.62 -0.09 -1.02 -0.19z"/>
  <path d="M271.95 186.08 c2.78 -2.78 5.18 -5.09 5.32 -5.09 0.09 0 -2.08 2.31 -4.86 5.09 -2.78 2.82 -5.18 5.09 -5.32 5.09 -0.09 0 2.08 -2.27 4.86 -5.09z"/>
  <path d="M365.41 177.29 c0 -3.93 0.09 -5.55 0.14 -3.56 0.09 1.94 0.09 5.18 0 7.17 -0.05 1.94 -0.14 0.32 -0.14 -3.61z"/>
  <path d="M159.84 173.72 c0.69 -0.09 1.71 -0.09 2.31 0 0.56 0.09 0 0.19 -1.30 0.19 -1.25 0 -1.76 -0.09 -1.02 -0.19z"/>
  <path d="M189.69 173.72 c0.83 -0.09 2.08 -0.09 2.78 0 0.69 0.09 0 0.19 -1.53 0.19 -1.53 0 -2.08 -0.09 -1.25 -0.19z"/>
  <path d="M107.62 153.22 c0 -11.34 0.05 -15.97 0.09 -10.32 0.09 5.69 0.09 14.95 0 20.60 -0.05 5.69 -0.09 1.06 -0.09 -10.28z"/>
  <path d="M195.94 170.58 c0 -1.53 0.09 -2.08 0.19 -1.25 0.09 0.83 0.09 2.08 0 2.78 -0.09 0.69 -0.19 0 -0.19 -1.53z"/>
  <path d="M170.34 170.99 c1.16 -0.65 3.10 -2.13 4.40 -3.33 1.25 -1.20 1.90 -1.67 1.39 -1.02 -1.81 2.22 -6.25 5.55 -7.41 5.55 -0.23 0 0.46 -0.56 1.62 -1.20z"/>
  <path d="M288.84 169.19 c1.62 -1.67 3.10 -3.01 3.19 -3.01 0.14 0 -1.11 1.34 -2.73 3.01 -1.62 1.67 -3.10 3.01 -3.19 3.01 -0.14 0 1.11 -1.34 2.73 -3.01z"/>
  <path d="M118.18 166.87 c0 -2.04 0.09 -2.82 0.19 -1.71 0.09 1.06 0.09 2.73 0 3.70 -0.09 0.93 -0.19 0.05 -0.19 -1.99z"/>
  <path d="M185.30 168.03 c0 -1.39 0.09 -1.99 0.19 -1.25 0.09 0.69 0.09 1.81 0 2.55 -0.09 0.69 -0.19 0.09 -0.19 -1.30z"/>
  <path d="M143.59 164.33 c0 -0.88 0.09 -1.25 0.23 -0.79 0.09 0.42 0.09 1.16 0 1.62 -0.14 0.42 -0.23 0.05 -0.23 -0.83z"/>
  <path d="M295.32 162.71 c1.39 -1.39 2.64 -2.55 2.73 -2.55 0.14 0 -0.88 1.16 -2.27 2.55 -1.39 1.39 -2.64 2.55 -2.73 2.55 -0.14 0 0.88 -1.16 2.27 -2.55z"/>
  <path d="M154.14 162.84 c0 -2.18 0.28 -2.22 0.56 -0.14 0.14 1.30 0.28 1.39 2.45 1.67 l2.31 0.28 -2.64 0.05 -2.68 0.09 0 -1.94z"/>
  <path d="M120.26 159.37 c1.30 -0.09 3.52 -0.09 4.86 0 1.30 0.09 0.23 0.14 -2.45 0.14 -2.68 0 -3.75 -0.05 -2.41 -0.14z"/>
  <path d="M185.34 155.30 c0 -2.27 0.05 -3.29 0.14 -2.22 0.09 1.06 0.09 2.96 0 4.17 -0.09 1.20 -0.14 0.37 -0.14 -1.94z"/>
  <path d="M195.85 158.45 c-0.05 -1.06 0 -1.06 6.11 -0.97 l6.11 0.09 -5.88 0.14 c-5.09 0.14 -5.88 0.28 -6.06 0.97 -0.14 0.56 -0.23 0.51 -0.28 -0.23z"/>
  <path d="M180.16 155.99 c0 -0.88 0.09 -1.25 0.23 -0.79 0.09 0.42 0.09 1.16 0 1.62 -0.14 0.42 -0.23 0.05 -0.23 -0.83z"/>
  <path d="M135.26 155.30 c0.69 -0.79 1.76 -2.55 2.41 -3.93 0.65 -1.39 1.20 -2.27 1.20 -1.94 0 1.11 -2.22 4.95 -3.56 6.11 l-1.30 1.16 1.25 -1.39z"/>
  <path d="M208.30 151.04 c-0.14 -1.06 -0.09 -1.81 0.14 -1.57 0.23 0.23 0.32 1.11 0.23 1.94 -0.14 1.53 -0.19 1.53 -0.37 -0.37z"/>
  <path d="M180.16 149.98 c0 -0.88 0.09 -1.25 0.23 -0.79 0.09 0.42 0.09 1.16 0 1.62 -0.14 0.42 -0.23 0.05 -0.23 -0.83z"/>
  <path d="M118.04 146 l0 -4.91 3.89 0.14 c3.38 0.19 4.07 0.32 5.09 1.30 0.65 0.65 1.20 1.34 1.20 1.62 0 0.28 -0.23 0.14 -0.51 -0.32 -0.83 -1.39 -3.01 -2.18 -6.20 -2.18 l-3.01 0 0 4.40 0 4.35 2.92 0.19 2.87 0.14 -3.10 0.09 -3.15 0.09 0 -4.91z"/>
  <path d="M125.72 149.79 c0.88 -0.37 1.67 -1.20 1.94 -1.99 0.32 -0.83 0.51 -1.02 0.51 -0.46 0.05 1.06 -1.99 3.10 -3.06 3.10 -0.51 -0.05 -0.28 -0.28 0.60 -0.65z"/>
  <path d="M195.80 145.12 l0 -3.93 8.05 0 c6.02 0 8.15 -0.14 8.29 -0.56 0.19 -0.46 0.28 -0.46 0.28 -0.05 0.05 0.28 -0.14 0.65 -0.37 0.79 -0.23 0.14 -3.89 0.28 -8.10 0.32 l-7.68 0.05 0 3.38 c0 3.38 0 3.43 1.30 3.61 1.16 0.19 1.16 0.19 -0.23 0.28 l-1.53 0.05 0 -3.93z"/>
  <path d="M168.03 147.20 c-0.32 -0.79 -1.34 -2.08 -2.27 -2.82 -0.93 -0.79 -1.25 -1.25 -0.74 -0.97 1.62 0.83 4.40 4.44 3.80 5 -0.09 0.14 -0.46 -0.42 -0.79 -1.20z"/>
  <path d="M139.01 145.58 c0 -1.53 0.09 -2.08 0.19 -1.25 0.09 0.83 0.09 2.08 0 2.78 -0.09 0.69 -0.19 0 -0.19 -1.53z"/>
  <path d="M185.25 141.18 c0 -0.88 0.09 -1.25 0.23 -0.79 0.09 0.42 0.09 1.16 0 1.62 -0.14 0.42 -0.23 0.05 -0.23 -0.83z"/>
  <path d="M155.67 141.78 c0.93 -0.09 2.50 -0.09 3.47 0 0.93 0.09 0.14 0.19 -1.76 0.19 -1.90 0 -2.68 -0.09 -1.71 -0.19z"/>
  <path d="M174.28 138.27 c-1.53 -1.57 -2.13 -2.41 -1.39 -1.85 1.34 0.93 2.55 2.18 3.89 3.98 1.11 1.43 0.32 0.79 -2.50 -2.13z"/>
  <path d="M125.35 132.53 c0.56 -0.09 1.39 -0.09 1.85 0 0.42 0.14 -0.05 0.23 -1.06 0.19 -1.02 0 -1.39 -0.09 -0.79 -0.19z"/>
  <path d="M160.99 132.53 c0.56 -0.09 1.39 -0.09 1.85 0 0.42 0.14 -0.05 0.23 -1.06 0.19 -1.02 0 -1.39 -0.09 -0.79 -0.19z"/>
  <path d="M205.66 132.53 c0.42 -0.09 1.16 -0.09 1.62 0 0.42 0.14 0.05 0.23 -0.83 0.23 -0.88 0 -1.25 -0.09 -0.79 -0.23z"/>
  <path d="M117.02 112.16 c0.56 -0.09 1.39 -0.09 1.85 0 0.42 0.14 -0.05 0.23 -1.06 0.19 -1.02 0 -1.39 -0.09 -0.79 -0.19z"/>
  <path d="M108.50 105.77 c0 -2.78 0.05 -3.89 0.14 -2.41 0.09 1.48 0.09 3.75 0 5.09 -0.09 1.34 -0.14 0.14 -0.14 -2.68z"/>
  <path d="M386.28 90.63 l-1.85 -1.99 1.99 1.85 c1.81 1.67 2.18 2.08 1.81 2.08 -0.09 0 -0.97 -0.88 -1.94 -1.94z"/>
 </g>
 <g fill="#332f58">
  <path d="M110.21 406.83 c-4.21 -0.83 -7.87 -4.49 -8.79 -8.79 -0.37 -1.62 -0.51 -33.61 -0.51 -104.61 0 -97.21 0.05 -102.30 0.79 -102.16 0.79 0.14 0.83 5.55 1.06 103.59 0.23 100.08 0.28 103.50 1.11 105.22 1.06 2.18 3.47 4.21 5.79 4.91 2.55 0.74 235.29 0.74 237.56 0 2.18 -0.74 4.44 -2.50 5.28 -4.12 0.37 -0.74 0.69 -1.43 0.69 -1.57 0 -0.14 -52.77 -0.32 -117.20 -0.42 l-117.25 -0.09 117.25 -0.14 c116.69 -0.09 117.25 -0.09 118.22 0.83 0.65 0.60 0.79 0.93 0.37 0.93 -0.32 0 -0.46 0.14 -0.32 0.28 0.60 0.60 -1.34 3.01 -3.38 4.35 -1.16 0.74 -3.01 1.53 -4.17 1.81 -2.59 0.60 -233.48 0.60 -236.49 0z"/>
  <path d="M178.31 396.37 c32.54 -0.09 85.77 -0.09 118.27 0 32.54 0.05 5.93 0.09 -59.11 0.09 -65.04 0 -91.65 -0.05 -59.16 -0.09z"/>
  <path d="M108.92 388.13 c0 -1.02 0.09 -1.39 0.19 -0.79 0.09 0.56 0.09 1.39 0 1.85 -0.14 0.42 -0.23 -0.05 -0.19 -1.06z"/>
  <path d="M363 385.13 c0 -0.88 0.09 -1.25 0.23 -0.79 0.09 0.42 0.09 1.16 0 1.62 -0.14 0.42 -0.23 0.05 -0.23 -0.83z"/>
  <path d="M365.36 377.72 c0 -1.16 0.09 -1.62 0.19 -1.02 0.09 0.56 0.09 1.48 0 2.08 -0.09 0.56 -0.19 0.09 -0.19 -1.06z"/>
  <path d="M365.36 370.31 c0 -1.16 0.09 -1.62 0.19 -1.02 0.09 0.56 0.09 1.48 0 2.08 -0.09 0.56 -0.19 0.09 -0.19 -1.06z"/>
  <path d="M365.36 364.29 c0 -1.90 0.09 -2.68 0.19 -1.71 0.09 0.93 0.09 2.50 0 3.47 -0.09 0.93 -0.19 0.14 -0.19 -1.76z"/>
  <path d="M365.36 346.71 c0 -1.16 0.09 -1.62 0.19 -1.02 0.09 0.56 0.09 1.48 0 2.08 -0.09 0.56 -0.19 0.09 -0.19 -1.06z"/>
  <path d="M365.36 298.80 c0 -1.53 0.09 -2.08 0.19 -1.25 0.09 0.83 0.09 2.08 0 2.78 -0.09 0.69 -0.19 0 -0.19 -1.53z"/>
  <path d="M365.36 289.08 c0 -1.02 0.09 -1.39 0.19 -0.79 0.09 0.56 0.09 1.39 0 1.85 -0.14 0.42 -0.23 -0.05 -0.19 -1.06z"/>
  <path d="M108.96 272.87 c0 -3.29 0.05 -4.58 0.14 -2.87 0.09 1.71 0.09 4.44 0 6.02 -0.09 1.57 -0.14 0.19 -0.14 -3.15z"/>
  <path d="M202.93 240.70 c0 -7.27 0.09 -10.23 0.14 -6.57 0.09 3.61 0.09 9.54 0 13.19 -0.05 3.61 -0.14 0.65 -0.14 -6.62z"/>
  <path d="M211.73 243.25 c0 -3.56 0.09 -4.95 0.14 -3.10 0.09 1.85 0.09 4.77 0 6.48 -0.09 1.71 -0.14 0.19 -0.14 -3.38z"/>
  <path d="M282.55 243.48 c0 -3.19 0.05 -4.49 0.14 -2.87 0.09 1.57 0.09 4.17 0 5.79 -0.09 1.57 -0.14 0.28 -0.14 -2.92z"/>
  <path d="M108.92 244.64 c0 -1.25 0.09 -1.76 0.19 -1.02 0.09 0.69 0.09 1.71 0 2.31 -0.09 0.56 -0.19 0 -0.19 -1.30z"/>
  <path d="M270.33 244.87 c0 -1.34 -0.05 -1.34 -2.87 -1.53 l-2.92 -0.14 3.15 -0.09 3.10 -0.09 0 1.62 c0 0.88 -0.09 1.62 -0.23 1.62 -0.14 0 -0.23 -0.60 -0.23 -1.39z"/>
  <path d="M108.92 236.31 c0 -1.02 0.09 -1.39 0.19 -0.79 0.09 0.56 0.09 1.39 0 1.85 -0.14 0.42 -0.23 -0.05 -0.19 -1.06z"/>
  <path d="M282.55 228.81 l0.05 -4.54 2.78 -0.05 2.78 0 -2.64 0.14 -2.64 0.19 -0.19 4.35 -0.14 4.40 0 -4.49z"/>
  <path d="M202.75 224.41 c0 -0.23 1.20 -0.32 2.68 -0.32 2.82 0.05 2.55 0.28 -0.69 0.51 -1.11 0.09 -1.99 0 -1.99 -0.19z"/>
  <path d="M189 224.18 c0.93 -0.09 2.50 -0.09 3.47 0 0.93 0.09 0.14 0.19 -1.76 0.19 -1.90 0 -2.68 -0.09 -1.71 -0.19z"/>
  <path d="M275.93 215.52 l-1.11 -1.43 1.30 1.25 c0.74 0.69 1.25 1.34 1.11 1.43 -0.09 0.14 -0.69 -0.46 -1.30 -1.25z"/>
  <path d="M282.13 214.78 c1.25 -1.25 2.36 -2.31 2.50 -2.31 0.14 0 -0.79 1.06 -2.04 2.31 -1.25 1.30 -2.36 2.31 -2.50 2.31 -0.14 0 0.79 -1.02 2.04 -2.31z"/>
  <path d="M270.79 207.51 l-7.64 -7.78 7.87 7.64 c4.30 4.21 7.92 7.68 8.05 7.78 0.09 0.05 0 0.09 -0.23 0.09 -0.23 0 -3.84 -3.47 -8.05 -7.73z"/>
  <path d="M279.59 214.64 c0 -0.09 0.69 -0.74 1.53 -1.53 l1.48 -1.34 -1.34 1.53 c-1.30 1.39 -1.67 1.71 -1.67 1.34z"/>
  <path d="M261.07 201.13 c-1.11 -1.16 -1.94 -2.08 -1.81 -2.08 0.14 0 1.16 0.93 2.27 2.08 1.11 1.16 1.94 2.08 1.81 2.08 -0.14 0 -1.16 -0.93 -2.27 -2.08z"/>
  <path d="M108.92 195.57 c0 -1.02 0.09 -1.39 0.19 -0.79 0.09 0.56 0.09 1.39 0 1.85 -0.14 0.42 -0.23 -0.05 -0.19 -1.06z"/>
  <path d="M268.01 186.78 c4.72 -4.72 8.66 -8.56 8.79 -8.56 0.14 0 -3.61 3.84 -8.33 8.56 -4.72 4.72 -8.66 8.56 -8.79 8.56 -0.14 0 3.61 -3.84 8.33 -8.56z"/>
  <path d="M365.36 185.85 c0 -1.02 0.09 -1.39 0.19 -0.79 0.09 0.56 0.09 1.39 0 1.85 -0.14 0.42 -0.23 -0.05 -0.19 -1.06z"/>
  <path d="M310.14 184 c0.88 -0.88 1.67 -1.62 1.81 -1.62 0.14 0 -0.46 0.74 -1.34 1.62 -0.88 0.88 -1.67 1.62 -1.81 1.62 -0.14 0 0.46 -0.74 1.34 -1.62z"/>
  <path d="M317.54 176.59 c0.88 -0.88 1.67 -1.62 1.81 -1.62 0.14 0 -0.46 0.74 -1.34 1.62 -0.88 0.88 -1.67 1.62 -1.81 1.62 -0.14 0 0.46 -0.74 1.34 -1.62z"/>
  <path d="M279.12 175.67 c0.88 -0.88 1.67 -1.62 1.81 -1.62 0.14 0 -0.46 0.74 -1.34 1.62 -0.88 0.88 -1.67 1.62 -1.81 1.62 -0.14 0 0.46 -0.74 1.34 -1.62z"/>
  <path d="M283.98 174.05 c0.97 -1.02 1.90 -1.85 2.04 -1.85 0.14 0 -0.60 0.83 -1.57 1.85 -0.97 1.02 -1.90 1.85 -2.04 1.85 -0.14 0 0.60 -0.83 1.57 -1.85z"/>
  <path d="M365.41 162.24 c0 -3.06 0.05 -4.26 0.14 -2.64 0.09 1.57 0.09 4.07 0 5.55 -0.09 1.43 -0.14 0.14 -0.14 -2.92z"/>
  <path d="M298.10 160.02 c0 -0.09 0.69 -0.74 1.53 -1.53 l1.48 -1.34 -1.34 1.53 c-1.30 1.39 -1.67 1.71 -1.67 1.34z"/>
  <path d="M285.83 123.13 c0 -19.49 0.05 -27.45 0.09 -17.73 0.09 9.77 0.09 25.69 0 35.41 -0.05 9.77 -0.09 1.81 -0.09 -17.68z"/>
  <path d="M296.16 156.13 c0.56 -0.09 1.39 -0.09 1.85 0 0.42 0.14 -0.05 0.23 -1.06 0.19 -1.02 0 -1.39 -0.09 -0.79 -0.19z"/>
  <path d="M343.37 156.13 c1.06 -0.09 2.82 -0.09 3.93 0 1.06 0.09 0.19 0.19 -1.99 0.19 -2.18 0 -3.06 -0.09 -1.94 -0.19z"/>
  <path d="M362.21 153.59 l-2.78 -2.92 2.92 2.78 c2.68 2.55 3.10 3.01 2.73 3.01 -0.05 0 -1.34 -1.30 -2.87 -2.87z"/>
  <path d="M305.28 152.75 c1.53 -1.53 2.87 -2.78 2.96 -2.78 0.14 0 -0.97 1.25 -2.50 2.78 -1.53 1.53 -2.87 2.78 -2.96 2.78 -0.14 0 0.97 -1.25 2.50 -2.78z"/>
  <path d="M299.95 154.93 c0 -0.09 0.69 -0.74 1.53 -1.53 l1.48 -1.34 -1.34 1.53 c-1.30 1.39 -1.67 1.71 -1.67 1.34z"/>
  <path d="M306.90 147.89 c1.62 -1.67 3.10 -3.01 3.19 -3.01 0.14 0 -1.11 1.34 -2.73 3.01 -1.62 1.67 -3.10 3.01 -3.19 3.01 -0.14 0 1.11 -1.34 2.73 -3.01z"/>
  <path d="M357.31 148.73 l-1.57 -1.76 1.76 1.57 c1.57 1.53 1.94 1.90 1.57 1.90 -0.09 0 -0.88 -0.79 -1.76 -1.71z"/>
  <path d="M352.68 147.34 l-1.57 -1.76 1.76 1.57 c1.57 1.53 1.94 1.90 1.57 1.90 -0.09 0 -0.88 -0.79 -1.76 -1.71z"/>
  <path d="M347.17 146.97 c0.88 -0.88 1.67 -1.62 1.81 -1.62 0.14 0 -0.46 0.74 -1.34 1.62 -0.88 0.88 -1.67 1.62 -1.81 1.62 -0.14 0 0.46 -0.74 1.34 -1.62z"/>
  <path d="M313.15 144.88 c1.76 -1.76 3.33 -3.24 3.43 -3.24 0.14 0 -1.20 1.48 -2.96 3.24 -1.76 1.81 -3.33 3.24 -3.43 3.24 -0.14 0 1.20 -1.43 2.96 -3.24z"/>
  <path d="M356.66 140.26 c2.04 -2.04 3.80 -3.70 3.93 -3.70 0.09 0 -1.43 1.67 -3.47 3.70 -2.04 2.04 -3.80 3.70 -3.93 3.70 -0.09 0 1.43 -1.67 3.47 -3.70z"/>
  <path d="M313.84 140.95 c1.39 -1.39 2.64 -2.55 2.73 -2.55 0.14 0 -0.88 1.16 -2.27 2.55 -1.39 1.39 -2.64 2.55 -2.73 2.55 -0.14 0 0.88 -1.16 2.27 -2.55z"/>
  <path d="M355.50 138.64 c1.62 -1.67 3.10 -3.01 3.19 -3.01 0.14 0 -1.11 1.34 -2.73 3.01 -1.62 1.67 -3.10 3.01 -3.19 3.01 -0.14 0 1.11 -1.34 2.73 -3.01z"/>
  <path d="M346.71 111.33 c16.15 -16.15 29.49 -29.39 29.63 -29.39 0.14 0 -13.01 13.24 -29.16 29.39 -16.15 16.15 -29.49 29.39 -29.63 29.39 -0.14 0 13.01 -13.24 29.16 -29.39z"/>
  <path d="M362.67 131.46 c1.25 -1.25 2.36 -2.31 2.50 -2.31 0.14 0 -0.79 1.06 -2.04 2.31 -1.25 1.30 -2.36 2.31 -2.50 2.31 -0.14 0 0.79 -1.02 2.04 -2.31z"/>
  <path d="M317.77 109.15 l-13.89 -14.03 14.12 13.89 c7.73 7.64 14.16 13.93 14.30 14.03 0.09 0.05 0 0.09 -0.23 0.09 -0.23 0 -6.67 -6.30 -14.30 -13.98z"/>
  <path d="M100.91 105.12 c0 -3.89 0.19 -6.99 0.42 -6.99 0.23 0 0.32 -0.37 0.19 -0.88 -0.09 -0.46 0.09 -1.16 0.51 -1.53 0.37 -0.42 0.56 -0.83 0.42 -1.02 -0.19 -0.14 -0.05 -0.28 0.28 -0.28 0.32 0 0.46 -0.19 0.32 -0.37 -0.14 -0.23 0.42 -1.02 1.20 -1.76 0.79 -0.74 1.25 -1.02 1.06 -0.65 -0.37 0.60 -0.32 0.60 0.51 0 0.46 -0.32 1.11 -0.93 1.39 -1.20 0.28 -0.37 0.69 -0.42 1.16 -0.19 0.51 0.37 0.69 2.36 0.79 10.83 0.14 9.30 0.23 10.42 0.93 10.60 0.56 0.14 0.51 0.23 -0.23 0.28 l-1.06 0.05 0 -9.95 c0 -7.22 -0.14 -9.95 -0.56 -9.95 -0.79 0 -3.52 2.22 -4.44 3.61 -0.65 0.97 -0.83 2.64 -1.02 8.61 -0.19 6.62 -0.32 7.45 -1.02 7.59 -0.79 0.14 -0.83 -0.42 -0.83 -6.80z"/>
  <path d="M390.91 94.80 l-3.24 -3.38 3.38 3.24 c3.10 2.96 3.56 3.47 3.19 3.47 -0.05 0 -1.57 -1.53 -3.33 -3.33z"/>
  <path d="M296.25 87.63 l-7.17 -7.31 7.31 7.17 c6.76 6.67 7.50 7.41 7.13 7.41 -0.05 0 -3.33 -3.29 -7.27 -7.27z"/>
  <path d="M382.12 86.47 l-2.31 -2.45 2.45 2.31 c2.22 2.13 2.64 2.55 2.27 2.55 -0.05 0 -1.16 -1.11 -2.41 -2.41z"/>
  <path d="M285.74 84.01 c0 -1.25 0.09 -1.76 0.19 -1.02 0.09 0.69 0.09 1.71 0 2.31 -0.09 0.56 -0.19 0 -0.19 -1.30z"/>
  <path d="M162.38 79.29 c22.96 -0.09 60.55 -0.09 83.55 0 22.96 0.05 4.17 0.09 -41.80 0.09 -45.97 0 -64.76 -0.05 -41.75 -0.09z"/>
  <path d="M398.78 73.51 l-2.31 -2.45 2.45 2.31 c2.22 2.13 2.64 2.55 2.27 2.55 -0.05 0 -1.16 -1.11 -2.41 -2.41z"/>
  <path d="M421.69 72.58 c1.11 -1.25 2.08 -2.22 2.18 -2.22 0.37 0 0 0.42 -2.04 2.31 l-2.22 2.08 2.08 -2.18z"/>
  <path d="M386.51 68.37 c0 -0.05 1.62 -1.67 3.61 -3.56 l3.56 -3.47 -3.47 3.61 c-3.19 3.29 -3.70 3.80 -3.70 3.43z"/>
  <path d="M425.49 66.19 c0 -0.88 0.09 -1.25 0.23 -0.79 0.09 0.42 0.09 1.16 0 1.62 -0.14 0.42 -0.23 0.05 -0.23 -0.83z"/>
  <path d="M395.08 62.49 c1.25 -1.25 2.36 -2.31 2.50 -2.31 0.14 0 -0.79 1.06 -2.04 2.31 -1.25 1.30 -2.36 2.31 -2.50 2.31 -0.14 0 0.79 -1.02 2.04 -2.31z"/>
  <path d="M423.04 61.24 l-1.57 -1.76 1.76 1.57 c1.57 1.53 1.94 1.90 1.57 1.90 -0.09 0 -0.88 -0.79 -1.76 -1.71z"/>
  <path d="M424.19 59.62 l-1.34 -1.53 1.53 1.34 c0.79 0.79 1.48 1.43 1.48 1.53 0 0.37 -0.37 0.05 -1.67 -1.34z"/>
  <path d="M400.17 54.62 c2.78 -2.78 5.18 -5.09 5.32 -5.09 0.09 0 -2.08 2.31 -4.86 5.09 -2.78 2.82 -5.18 5.09 -5.32 5.09 -0.09 0 2.08 -2.27 4.86 -5.09z"/>
  <path d="M402.95 54.62 c2.04 -2.04 3.80 -3.70 3.93 -3.70 0.09 0 -1.43 1.67 -3.47 3.70 -2.04 2.04 -3.80 3.70 -3.93 3.70 -0.09 0 1.43 -1.67 3.47 -3.70z"/>
  <path d="M408.64 48.28 c0.56 -0.09 1.39 -0.09 1.85 0 0.42 0.14 -0.05 0.23 -1.06 0.19 -1.02 0 -1.39 -0.09 -0.79 -0.19z"/>
 </g>
 <g fill="#272345">
  <path d="M354.02 399.34 c-0.69 -0.74 -8.89 -0.79 -118.08 -0.79 -130.16 0 -119.70 0.28 -123.18 -3.10 -0.97 -0.93 -2.18 -2.55 -2.73 -3.56 l-1.02 -1.90 -0.05 -99.38 -0.05 -99.43 1.11 0 1.06 0 0 99.06 c0 82.02 0.09 99.34 0.60 100.59 0.79 1.81 4.03 4.81 5.74 5.28 0.74 0.23 54.81 0.37 120.26 0.37 l118.96 0 2.18 -1.25 c2.73 -1.62 3.98 -4.07 4.17 -8.24 0.05 -1.67 0.05 -53.70 0 -115.58 l-0.09 -112.62 -12.41 0 -12.41 0 -29.81 29.86 -29.81 29.81 -5.09 2.87 c-2.82 1.57 -5.32 3.01 -5.55 3.24 -0.28 0.23 -0.05 0.83 0.51 1.43 1.43 1.53 1.99 3.29 1.99 6.43 l0 2.73 -3.01 0 -3.01 0 0 -2.36 c0 -2.87 -0.60 -4.12 -2.04 -4.12 -2.36 0 -2.59 0.93 -2.59 10.79 0 7.59 0.09 9.17 0.74 9.77 1.90 1.94 3.89 0.19 3.89 -3.47 l0 -2.50 3.01 0.14 3.01 0.19 0 2.41 c0 3.10 -1.53 6.20 -3.70 7.45 -1.20 0.69 -2.41 0.93 -4.63 0.88 -7.08 -0.05 -9.03 -3.52 -8.70 -15.51 0.09 -3.29 0.09 -5.97 0.05 -5.97 -0.05 0 -3.47 1.94 -7.64 4.30 -11.94 6.85 -14.72 8.29 -14.72 7.68 0 -0.74 5.51 -10.83 13.33 -24.49 3.43 -5.97 8.01 -13.93 10.14 -17.68 2.18 -3.75 4.26 -6.94 4.68 -7.04 0.42 -0.14 9.03 -8.52 19.07 -18.56 l18.28 -18.28 -5.23 0 -5.18 0 -0.09 -35.50 c-0.05 -19.58 0 -36.85 0.05 -38.47 l0.14 -2.87 -84.66 0.09 -84.71 0.14 -1.67 1.25 c-0.88 0.74 -2.13 1.99 -2.73 2.78 -1.02 1.48 -1.06 1.81 -1.20 13.61 -0.14 11.66 -0.19 12.13 -1.02 11.90 -0.83 -0.23 -0.88 -0.88 -1.02 -10.60 -0.09 -8.66 -0.28 -10.46 -0.83 -10.83 -0.60 -0.37 -0.60 -0.46 0.05 -0.46 0.51 0 0.88 -0.56 1.06 -1.53 0.46 -2.55 2.78 -5.69 5.23 -7.13 l2.22 -1.30 85.63 -0.14 85.63 -0.09 21.85 21.85 21.89 21.89 36.94 -36.94 c20.27 -20.32 37.22 -37.12 37.59 -37.36 0.37 -0.23 1.85 -0.46 3.29 -0.46 1.94 0 2.96 0.23 3.93 1.02 2.45 1.81 12.27 11.71 13.01 13.05 0.83 1.62 0.93 5.28 0.14 6.80 -0.32 0.60 -16.94 17.50 -36.98 37.59 -20 20.04 -36.43 36.61 -36.52 36.80 -0.05 0.23 2.59 3.19 5.88 6.62 l6.02 6.20 0.05 116 c0 126.28 0.19 118.41 -2.55 122.02 -1.25 1.57 -5.18 3.84 -6.80 3.84 -0.42 0 -0.83 0.37 -0.93 0.79 -0.14 0.74 -0.19 0.74 -0.93 0z m-100.82 -168.72 c15.37 -8.93 23.38 -13.52 23.79 -13.66 0.42 -0.14 -16.90 -17.50 -17.77 -17.82 -0.19 -0.09 -1.30 1.48 -2.45 3.47 -1.16 1.99 -5.37 9.21 -9.35 16.11 -9.72 16.66 -9.07 15.04 -6.94 16.99 l1.76 1.62 1.90 -1.25 c1.06 -0.69 5.14 -3.15 9.07 -5.46z m83.97 -73.51 l58.14 -58.14 -1.85 -1.90 c-3.06 -3.29 -16.15 -15.37 -16.66 -15.37 -0.23 0 -26.48 26.01 -58.32 57.86 l-57.86 57.86 8.89 8.89 c4.91 4.91 9.07 8.93 9.26 8.93 0.19 0 26.48 -26.15 58.42 -58.14z m-22.54 -16.53 l15.65 -15.60 -20.97 -20.92 -20.92 -20.97 0 36.38 c0 20 0.09 36.48 0.19 36.57 0.14 0.09 2.50 0.19 5.32 0.19 l5.14 0 15.60 -15.65z m46.24 15.23 c0.05 0 -2.08 -2.31 -4.72 -5.14 l-4.81 -5.09 -5.05 5.05 c-2.82 2.78 -5 5.23 -4.86 5.46 0.19 0.32 19.12 0.05 19.44 -0.28z m62.31 -84.66 c2.55 -2.68 3.10 -4.63 2.18 -7.04 -0.42 -0.97 -3.15 -3.93 -6.99 -7.59 -6.67 -6.34 -8.24 -7.27 -10.60 -6.06 -1.43 0.74 -16.15 15.37 -16.11 15.97 0.05 0.23 4.17 4.35 9.17 9.07 l9.07 8.66 5.55 -5.32 c3.06 -2.96 6.53 -6.39 7.73 -7.68z"/>
  <path d="M147.94 272.13 c-0.97 -0.74 -1.20 -1.34 -1.20 -2.92 0 -2.13 0.79 -3.19 2.68 -3.66 1.43 -0.32 3.70 0.46 4.26 1.53 2.08 3.84 -2.31 7.73 -5.74 5.05z"/>
  <path d="M318.19 272.04 c-1.02 -0.88 -1.25 -1.48 -1.20 -2.87 0.09 -2.45 1.39 -3.70 3.84 -3.70 2.41 0 3.66 1.39 3.66 3.93 0 3.29 -3.70 4.86 -6.30 2.64z"/>
  <path d="M182.05 253.11 c0.14 -0.60 1.43 -7.27 2.92 -14.81 l2.68 -13.75 3.38 -0.14 c3.10 -0.14 3.43 -0.05 3.66 0.79 0.23 1.11 5.74 28.61 5.74 28.79 0 0.09 -1.34 0.14 -3.01 0.14 l-2.96 0 -0.28 -1.71 c-0.74 -4.40 -0.56 -4.17 -2.87 -4.49 -2.55 -0.32 -2.68 -0.19 -3.10 3.47 l-0.32 2.73 -3.06 0 c-2.87 0 -3.01 -0.05 -2.78 -1.02z m10.46 -10.42 c-0.05 -2.41 -1.11 -9.77 -1.43 -10.14 -0.23 -0.19 -0.37 -0.05 -0.37 0.32 0 0.37 -0.32 2.73 -0.69 5.23 -0.93 6.11 -0.97 5.83 0.93 5.83 1.48 0 1.62 -0.14 1.57 -1.25z"/>
  <path d="M203.02 239.41 l0.05 -14.67 2.64 -0.23 c1.48 -0.14 2.73 -0.14 2.87 -0.05 0.09 0.09 0.19 2.36 0.19 5 l0 4.77 1.53 -0.93 c3.29 -1.99 6.57 -0.56 7.31 3.24 0.46 2.59 0.46 10.14 0 13.15 -0.69 4.07 -4.30 5.74 -7.50 3.47 l-1.34 -0.93 0 0.93 c0 0.88 -0.28 0.97 -2.87 0.97 l-2.92 0 0.05 -14.72z m8.70 10.28 c0.14 -0.42 0.28 -3.38 0.28 -6.67 0 -6.34 -0.32 -7.36 -2.31 -6.71 -0.88 0.28 -0.93 0.65 -0.93 6.90 0 3.61 0.14 6.76 0.32 6.90 0.56 0.60 2.36 0.32 2.64 -0.42z"/>
  <path d="M275.74 253.62 c-1.67 -0.97 -2.18 -3.29 -2.18 -10.14 0 -7.04 0.46 -9.03 2.36 -10.37 1.53 -1.02 4.21 -0.93 5.69 0.23 l1.20 0.93 0 -4.86 0 -4.91 2.78 0 2.78 0 0 14.81 0 14.81 -2.78 0 c-2.45 0 -2.78 -0.09 -2.78 -0.93 0 -0.51 -0.09 -0.93 -0.23 -0.93 -0.14 0 -0.65 0.42 -1.16 0.93 -1.02 1.02 -4.26 1.25 -5.69 0.42z m6.34 -3.93 c0.60 -0.56 0.74 -1.81 0.74 -5.88 0 -5.79 -0.23 -7.08 -1.25 -7.45 -1.67 -0.65 -1.99 0.56 -1.99 7.13 0 3.47 0.14 6.48 0.32 6.62 0.51 0.56 1.43 0.37 2.18 -0.42z"/>
  <path d="M147.89 210.01 c-1.81 -1.53 -1.81 -4.21 -0.05 -5.69 2.59 -2.27 6.30 -0.74 6.30 2.64 0 3.61 -3.61 5.37 -6.25 3.06z"/>
  <path d="M318.24 210.01 c-3.84 -3.29 1.02 -8.98 5.05 -5.83 0.93 0.74 1.20 1.34 1.20 2.73 0 2.22 -1.16 3.66 -3.29 3.98 -1.30 0.23 -1.90 0.05 -2.96 -0.88z"/>
  <path d="M419.10 158.17 c-0.09 -0.32 -0.19 -2.41 -0.09 -4.54 l0.14 -3.89 1.62 0 1.62 0 0 4.40 0 4.40 -1.53 0.14 c-0.97 0.09 -1.57 -0.09 -1.76 -0.51z"/>
  <path d="M407.07 146.04 c-0.51 -2.04 0.42 -2.55 4.68 -2.55 4.17 0 5.05 0.46 4.77 2.41 -0.14 1.02 -0.32 1.06 -4.63 1.20 -4.49 0.14 -4.49 0.14 -4.81 -1.06z"/>
  <path d="M425.12 146.04 c-0.51 -2.13 0.42 -2.59 4.86 -2.45 l3.98 0.14 0 1.62 0 1.62 -4.26 0.14 c-4.26 0.14 -4.26 0.14 -4.58 -1.06z"/>
  <path d="M419.43 141 c-0.37 -0.42 -0.51 -2.13 -0.42 -4.77 l0.14 -4.07 1.62 0 1.62 0 0.14 4.17 c0.09 3.52 0 4.26 -0.65 4.72 -1.06 0.79 -1.81 0.74 -2.45 -0.05z"/>
  <path d="M220.06 57.26 c-0.09 -0.32 -0.19 -2.41 -0.09 -4.54 l0.14 -3.89 1.48 -0.14 c1.85 -0.19 2.08 0.56 1.90 5.46 l-0.14 3.47 -1.53 0.14 c-0.97 0.09 -1.57 -0.09 -1.76 -0.51z"/>
  <path d="M208.49 45.64 c-0.14 -0.37 -0.19 -1.16 -0.09 -1.76 0.14 -1.02 0.28 -1.06 4.54 -1.06 4.26 0 4.40 0.05 4.54 1.06 0.28 1.94 -0.60 2.41 -4.86 2.41 -2.92 0 -3.93 -0.14 -4.12 -0.65z"/>
  <path d="M226.45 45.87 c-0.37 -0.23 -0.56 -0.97 -0.46 -1.71 l0.14 -1.34 4.26 -0.14 c3.89 -0.14 4.26 -0.05 4.54 0.83 0.14 0.51 0.14 1.34 0 1.85 -0.28 0.83 -0.69 0.93 -4.07 0.93 -2.08 0 -4.07 -0.19 -4.40 -0.42z"/>
  <path d="M220.06 39.67 c-0.09 -0.32 -0.19 -2.41 -0.09 -4.54 l0.14 -3.89 1.62 0 1.62 0 0 4.40 0 4.40 -1.53 0.14 c-0.97 0.09 -1.57 -0.09 -1.76 -0.51z"/>
 </g>
</svg>